  0
SECTION
  2
HEADER
  9
$ACADVER
  1
AC1015
  9
$ACADMAINTVER
 70
     6
  9
$DWGCODEPAGE
  3
ANSI_1252
  9
$INSBASE
 10
0.0
 20
0.0
 30
0.0
  9
$EXTMIN
 10
-118.0
 20
-83.0
 30
0.0
  9
$EXTMAX
 10
118.0
 20
83.0
 30
0.0
  9
$LIMMIN
 10
0.0
 20
0.0
  9
$LIMMAX
 10
420.0
 20
297.0
  9
$ORTHOMODE
 70
     0
  9
$REGENMODE
 70
     1
  9
$FILLMODE
 70
     1
  9
$QTEXTMODE
 70
     0
  9
$MIRRTEXT
 70
     1
  9
$LTSCALE
 40
1.0
  9
$ATTMODE
 70
     1
  9
$TEXTSIZE
 40
3.5
  9
$TRACEWID
 40
1.0
  9
$TEXTSTYLE
  7
Standard
  9
$CLAYER
  8
0
  9
$CELTYPE
  6
ByLayer
  9
$CECOLOR
 62
   256
  9
$CELTSCALE
 40
1.0
  9
$DISPSILH
 70
     0
  9
$DIMSCALE
 40
1.0
  9
$DIMASZ
 40
3.302
  9
$DIMEXO
 40
1.0
  9
$DIMDLI
 40
3.75
  9
$DIMRND
 40
0.0
  9
$DIMDLE
 40
0.0
  9
$DIMEXE
 40
1.0
  9
$DIMTP
 40
0.0
  9
$DIMTM
 40
0.0
  9
$DIMTXT
 40
3.5
  9
$DIMCEN
 40
2.5
  9
$DIMTSZ
 40
0.0
  9
$DIMTOL
 70
     0
  9
$DIMLIM
 70
     0
  9
$DIMTIH
 70
     1
  9
$DIMTOH
 70
     1
  9
$DIMSE1
 70
     0
  9
$DIMSE2
 70
     0
  9
$DIMTAD
 70
     1
  9
$DIMZIN
 70
     0
  9
$DIMBLK
  1

  9
$DIMASO
 70
     1
  9
$DIMSHO
 70
     1
  9
$DIMPOST
  1

  9
$DIMAPOST
  1

  9
$DIMALT
 70
     0
  9
$DIMALTD
 70
     3
  9
$DIMALTF
 40
0.0393700787
  9
$DIMLFAC
 40
1.0
  9
$DIMTOFL
 70
     1
  9
$DIMTVP
 40
0.0
  9
$DIMTIX
 70
     0
  9
$DIMSOXD
 70
     0
  9
$DIMSAH
 70
     0
  9
$DIMBLK1
  1

  9
$DIMBLK2
  1

  9
$DIMSTYLE
  2
ISO-25
  9
$DIMCLRD
 70
     0
  9
$DIMCLRE
 70
     0
  9
$DIMCLRT
 70
     0
  9
$DIMTFAC
 40
1.0
  9
$DIMGAP
 40
1.524
  9
$DIMJUST
 70
     0
  9
$DIMSD1
 70
     0
  9
$DIMSD2
 70
     0
  9
$DIMTOLJ
 70
     0
  9
$DIMTZIN
 70
     0
  9
$DIMALTZ
 70
     0
  9
$DIMALTTZ
 70
     0
  9
$DIMUPT
 70
     0
  9
$DIMDEC
 70
     2
  9
$DIMTDEC
 70
     2
  9
$DIMALTU
 70
     2
  9
$DIMALTTD
 70
     3
  9
$DIMTXSTY
  7
Standard
  9
$DIMAUNIT
 70
     0
  9
$DIMADEC
 70
     2
  9
$DIMALTRND
 40
0.0
  9
$DIMAZIN
 70
     0
  9
$DIMDSEP
 70
    44
  9
$DIMATFIT
 70
     3
  9
$DIMFRAC
 70
     0
  9
$DIMLDRBLK
  1

  9
$DIMLUNIT
 70
     2
  9
$DIMLWD
 70
    -2
  9
$DIMLWE
 70
    -2
  9
$DIMTMOVE
 70
     0
  9
$LUNITS
 70
     2
  9
$LUPREC
 70
     2
  9
$SKETCHINC
 40
1.0
  9
$FILLETRAD
 40
10.0
  9
$AUNITS
 70
     0
  9
$AUPREC
 70
     2
  9
$MENU
  1
.
  9
$ELEVATION
 40
0.0
  9
$PELEVATION
 40
0.0
  9
$THICKNESS
 40
0.0
  9
$LIMCHECK
 70
     0
  9
$CHAMFERA
 40
0.0
  9
$CHAMFERB
 40
0.0
  9
$CHAMFERC
 40
0.0
  9
$CHAMFERD
 40
0.0
  9
$SKPOLY
 70
     0
  9
$TDCREATE
 40
2457535.542908113
  9
$TDUCREATE
 40
2457535.501241447
  9
$TDUPDATE
 40
2457535.54442904
  9
$TDUUPDATE
 40
2457535.502762373
  9
$TDINDWG
 40
0.0012376157
  9
$TDUSRTIMER
 40
2457535.501525243
  9
$USRTIMER
 70
     1
  9
$ANGBASE
 50
0.0
  9
$ANGDIR
 70
     0
  9
$PDMODE
 70
     0
  9
$PDSIZE
 40
-1.0
  9
$PLINEWID
 40
0.0
  9
$SPLFRAME
 70
     0
  9
$SPLINETYPE
 70
     6
  9
$SPLINESEGS
 70
     8
  9
$HANDSEED
  5
12C
  9
$SURFTAB1
 70
     6
  9
$SURFTAB2
 70
     6
  9
$SURFTYPE
 70
     6
  9
$SURFU
 70
     6
  9
$SURFV
 70
     6
  9
$UCSBASE
  2

  9
$UCSNAME
  2

  9
$UCSORG
 10
0.0
 20
0.0
 30
0.0
  9
$UCSXDIR
 10
1.0
 20
0.0
 30
0.0
  9
$UCSYDIR
 10
0.0
 20
1.0
 30
0.0
  9
$UCSORTHOREF
  2

  9
$UCSORTHOVIEW
 70
     0
  9
$UCSORGTOP
 10
0.0
 20
0.0
 30
0.0
  9
$UCSORGBOTTOM
 10
0.0
 20
0.0
 30
0.0
  9
$UCSORGLEFT
 10
0.0
 20
0.0
 30
0.0
  9
$UCSORGRIGHT
 10
0.0
 20
0.0
 30
0.0
  9
$UCSORGFRONT
 10
0.0
 20
0.0
 30
0.0
  9
$UCSORGBACK
 10
0.0
 20
0.0
 30
0.0
  9
$PUCSBASE
  2

  9
$PUCSNAME
  2

  9
$PUCSORG
 10
0.0
 20
0.0
 30
0.0
  9
$PUCSXDIR
 10
1.0
 20
0.0
 30
0.0
  9
$PUCSYDIR
 10
0.0
 20
1.0
 30
0.0
  9
$PUCSORTHOREF
  2

  9
$PUCSORTHOVIEW
 70
     0
  9
$PUCSORGTOP
 10
0.0
 20
0.0
 30
0.0
  9
$PUCSORGBOTTOM
 10
0.0
 20
0.0
 30
0.0
  9
$PUCSORGLEFT
 10
0.0
 20
0.0
 30
0.0
  9
$PUCSORGRIGHT
 10
0.0
 20
0.0
 30
0.0
  9
$PUCSORGFRONT
 10
0.0
 20
0.0
 30
0.0
  9
$PUCSORGBACK
 10
0.0
 20
0.0
 30
0.0
  9
$USERI1
 70
     0
  9
$USERI2
 70
     0
  9
$USERI3
 70
     0
  9
$USERI4
 70
     0
  9
$USERI5
 70
     0
  9
$USERR1
 40
0.0
  9
$USERR2
 40
0.0
  9
$USERR3
 40
0.0
  9
$USERR4
 40
0.0
  9
$USERR5
 40
0.0
  9
$WORLDVIEW
 70
     1
  9
$SHADEDGE
 70
     3
  9
$SHADEDIF
 70
    70
  9
$TILEMODE
 70
     1
  9
$MAXACTVP
 70
    64
  9
$PINSBASE
 10
0.0
 20
0.0
 30
0.0
  9
$PLIMCHECK
 70
     0
  9
$PEXTMIN
 10
1.000000000000000E+20
 20
1.000000000000000E+20
 30
1.000000000000000E+20
  9
$PEXTMAX
 10
-1.000000000000000E+20
 20
-1.000000000000000E+20
 30
-1.000000000000000E+20
  9
$PLIMMIN
 10
0.0
 20
0.0
  9
$PLIMMAX
 10
0.0
 20
0.0
  9
$UNITMODE
 70
     0
  9
$VISRETAIN
 70
     1
  9
$PLINEGEN
 70
     0
  9
$PSLTSCALE
 70
     1
  9
$TREEDEPTH
 70
  3020
  9
$CMLSTYLE
  2
Standard
  9
$CMLJUST
 70
     0
  9
$CMLSCALE
 40
20.0
  9
$PROXYGRAPHICS
 70
     1
  9
$MEASUREMENT
 70
     1
  9
$CELWEIGHT
370
    -1
  9
$ENDCAPS
280
     0
  9
$JOINSTYLE
280
     0
  9
$LWDISPLAY
290
     1
  9
$INSUNITS
 70
     4
  9
$HYPERLINKBASE
  1

  9
$STYLESHEET
  1

  9
$XEDIT
290
     1
  9
$CEPSNTYPE
380
     0
  9
$PSTYLEMODE
290
     1
  9
$FINGERPRINTGUID
  2
{8AA6F099-581F-4CD9-A366-5345951EBB39}
  9
$VERSIONGUID
  2
{FAEB1C32-E019-11D5-929B-00C0DF256EC4}
  9
$EXTNAMES
290
     1
  9
$PSVPSCALE
 40
0.0
  9
$OLESTARTUP
290
     0
  0
ENDSEC
  0
SECTION
  2
CLASSES
  0
CLASS
  1
ACDBDICTIONARYWDFLT
  2
AcDbDictionaryWithDefault
  3
ObjectDBX Classes
 90
        0
280
     0
281
     0
  0
CLASS
  1
VISUALSTYLE
  2
AcDbVisualStyle
  3
ObjectDBX Classes
 90
     4095
280
     0
281
     0
  0
CLASS
  1
MATERIAL
  2
AcDbMaterial
  3
ObjectDBX Classes
 90
     1153
280
     0
281
     0
  0
CLASS
  1
SCALE
  2
AcDbScale
  3
ObjectDBX Classes
 90
     1153
280
     0
281
     0
  0
CLASS
  1
SUN
  2
AcDbSun
  3
SCENEOE
 90
     1153
280
     0
281
     0
  0
CLASS
  1
ACDBPLACEHOLDER
  2
AcDbPlaceHolder
  3
ObjectDBX Classes
 90
        0
280
     0
281
     0
  0
CLASS
  1
LAYOUT
  2
AcDbLayout
  3
ObjectDBX Classes
 90
        0
280
     0
281
     0
  0
CLASS
  1
TABLESTYLE
  2
AcDbTableStyle
  3
ObjectDBX Classes
 90
     4095
280
     0
281
     0
  0
CLASS
  1
RASTERVARIABLES
  2
AcDbRasterVariables
  3
ISM
 90
        0
280
     0
281
     0
  0
ENDSEC
  0
SECTION
  2
TABLES
  0
TABLE
  2
VPORT
  5
8
330
0
100
AcDbSymbolTable
 70
     1
  0
VPORT
  5
29
330
8
100
AcDbSymbolTableRecord
100
AcDbViewportTableRecord
  2
*Active
 70
     0
 10
0.0
 20
0.0
 11
1.0
 21
1.0
 12
0.0
 22
0.0
 13
0.0
 23
0.0
 14
10.0
 24
10.0
 15
10.0
 25
10.0
 16
0.0
 26
0.0
 36
1.0
 17
0.0
 27
0.0
 37
0.0
 40
169.32
 41
1.421686747
 42
50.0
 43
0.0
 44
0.0
 50
0.0
 51
0.0
 71
     0
 72
   100
 73
     1
 74
     3
 75
     0
 76
     0
 77
     0
 78
     0
281
     0
 65
     1
110
0.0
120
0.0
130
0.0
111
1.0
121
0.0
131
0.0
112
0.0
122
1.0
132
0.0
 79
     0
146
0.0
  0
ENDTAB
  0
TABLE
  2
LTYPE
  5
5
330
0
100
AcDbSymbolTable
 70
     6
  0
LTYPE
  5
14
330
5
100
AcDbSymbolTableRecord
100
AcDbLinetypeTableRecord
  2
ByBlock
 70
     0
  3

 72
    65
 73
     0
 40
0.0
  0
LTYPE
  5
15
330
5
100
AcDbSymbolTableRecord
100
AcDbLinetypeTableRecord
  2
ByLayer
 70
     0
  3

 72
    65
 73
     0
 40
0.0
  0
LTYPE
  5
16
330
5
100
AcDbSymbolTableRecord
100
AcDbLinetypeTableRecord
  2
Continuous
 70
     0
  3
Solid line
 72
    65
 73
     0
 40
0.0
  0
LTYPE
  5
6A
330
5
100
AcDbSymbolTableRecord
100
AcDbLinetypeTableRecord
  2
HIDDEN
 70
     0
  3
Hidden __ __ __ __ __ __ __ __ __ __ __ __ __ __
 72
    65
 73
     2
 40
1.905
 49
1.27
 74
     0
 49
-0.635
 74
     0
  0
LTYPE
  5
6B
330
5
100
AcDbSymbolTableRecord
100
AcDbLinetypeTableRecord
  2
PHANTOM
 70
     0
  3
Phantom ______  __  __  ______  __  __  ______
 72
    65
 73
     6
 40
12.7
 49
6.35
 74
     0
 49
-1.27
 74
     0
 49
1.27
 74
     0
 49
-1.27
 74
     0
 49
1.27
 74
     0
 49
-1.27
 74
     0
  0
LTYPE
  5
6C
330
5
100
AcDbSymbolTableRecord
100
AcDbLinetypeTableRecord
  2
CENTER
 70
     0
  3
Center ____ _ ____ _ ____ _ ____ _ ____ _ ____
 72
    65
 73
     4
 40
10.16
 49
6.35
 74
     0
 49
-1.27
 74
     0
 49
1.27
 74
     0
 49
-1.27
 74
     0
  0
LTYPE
  5
6D
330
5
100
AcDbSymbolTableRecord
100
AcDbLinetypeTableRecord
  2
CENTERX2
 70
     0
  3
Center (2x) ________  __  ________  __  _____
 72
    65
 73
     4
 40
20.32
 49
12.7
 74
     0
 49
-2.54
 74
     0
 49
2.54
 74
     0
 49
-2.54
 74
     0
  0
LTYPE
  5
6E
330
5
100
AcDbSymbolTableRecord
100
AcDbLinetypeTableRecord
  2
DOT2
 70
     0
  3
Dot (.5x) ........................................
 72
    65
 73
     2
 40
0.635
 49
0.0
 74
     0
 49
-0.635
 74
     0
  0
ENDTAB
  0
TABLE
  2
LAYER
  5
2
330
0
100
AcDbSymbolTable
 70
     1
  0
LAYER
  5
10
330
2
100
AcDbSymbolTableRecord
100
AcDbLayerTableRecord
  2
0
 70
     0
 62
     7
  6
Continuous
370
    -3
390
F
  0
ENDTAB
  0
TABLE
  2
STYLE
  5
3
330
0
100
AcDbSymbolTable
 70
     1
  0
STYLE
  5
11
330
3
100
AcDbSymbolTableRecord
100
AcDbTextStyleTableRecord
  2
Standard
 70
     0
 40
0.0
 41
1.0
 50
0.0
 71
     0
 42
3.5
  3
txt
  4

  0
ENDTAB
  0
TABLE
  2
VIEW
  5
6
330
0
100
AcDbSymbolTable
 70
     0
  0
ENDTAB
  0
TABLE
  2
UCS
  5
7
330
0
100
AcDbSymbolTable
 70
     0
  0
ENDTAB
  0
TABLE
  2
APPID
  5
9
330
0
100
AcDbSymbolTable
 70
     1
  0
APPID
  5
12
330
9
100
AcDbSymbolTableRecord
100
AcDbRegAppTableRecord
  2
ACAD
 70
     0
  0
ENDTAB
  0
TABLE
  2
DIMSTYLE
  5
A
330
0
100
AcDbSymbolTable
 70
     1
100
AcDbDimStyleTable
  0
DIMSTYLE
105
27
330
A
100
AcDbSymbolTableRecord
100
AcDbDimStyleTableRecord
  2
ISO-25
 70
     0
 41
2.5
 42
0.625
 43
3.75
 44
1.25
 73
     0
 74
     0
 77
     1
 78
     8
140
2.5
141
2.5
143
0.0393700787
147
0.625
171
     3
172
     1
178
     0
271
     2
272
     2
274
     3
278
    44
283
     0
284
     8
340
11
  0
ENDTAB
  0
TABLE
  2
BLOCK_RECORD
  5
1
330
0
100
AcDbSymbolTable
 70
     1
  0
BLOCK_RECORD
  5
1F
330
1
100
AcDbSymbolTableRecord
100
AcDbBlockTableRecord
  2
*Model_Space
340
22
  0
BLOCK_RECORD
  5
1B
330
1
100
AcDbSymbolTableRecord
100
AcDbBlockTableRecord
  2
*Paper_Space
340
1E
  0
BLOCK_RECORD
  5
23
330
1
100
AcDbSymbolTableRecord
100
AcDbBlockTableRecord
  2
*Paper_Space0
340
26
  0
ENDTAB
  0
ENDSEC
  0
SECTION
  2
BLOCKS
  0
BLOCK
  5
20
330
1F
100
AcDbEntity
  8
0
100
AcDbBlockBegin
  2
*Model_Space
 70
     0
 10
0.0
 20
0.0
 30
0.0
  3
*Model_Space
  1
*Model_Space
  0
ENDBLK
  5
21
330
1F
100
AcDbEntity
  8
0
100
AcDbBlockEnd
  0
BLOCK
  5
1C
330
1B
100
AcDbEntity
 67
     1
  8
0
100
AcDbBlockBegin
  2
*Paper_Space
 70
     0
 10
0.0
 20
0.0
 30
0.0
  3
*Paper_Space
  1
*Paper_Space
  0
ENDBLK
  5
1D
330
1B
100
AcDbEntity
 67
     1
  8
0
100
AcDbBlockEnd
  0
BLOCK
  5
24
330
23
100
AcDbEntity
  8
0
100
AcDbBlockBegin
  2
*Paper_Space0
 70
     0
 10
0.0
 20
0.0
 30
0.0
  3
*Paper_Space0
  1
*Paper_Space0
  0
ENDBLK
  5
25
330
23
100
AcDbEntity
  8
0
100
AcDbBlockEnd
  0
ENDSEC
  0
SECTION
  2
ENTITIES
  0
LWPOLYLINE
  5
7B
330
1F
100
AcDbEntity
  8
0
  6
Continuous
 62
     7
370
    15
100
AcDbPolyline
 90
       51
 70
   128
 43
0.0
 10
-64.5
 20
-55.0
 10
-64.5985662336
 20
-53.8720008979
 10
-64.8927104859
 20
-52.7617910155
 10
-65.3777939264
 20
-51.6868790258
 10
-66.0461664995
 20
-50.6642169331
 10
-66.8872875703
 20
-49.7099327294
 10
-67.8878921572
 20
-48.8390760466
 10
-69.0322001281
 20
-48.065380815
 10
-70.3021650628
 20
-47.4010486705
 10
-71.6777588554
 20
-46.8565565278
 10
-73.1372875703
 20
-46.4404913533
 10
-74.6577335677
 20
-46.1594147434
 10
-76.2151185059
 20
-46.0177594441
 10
-77.7848814941
 20
-46.0177594441
 10
-79.3422664323
 20
-46.1594147434
 10
-80.8627124297
 20
-46.4404913533
 10
-82.3222411446
 20
-46.8565565278
 10
-83.6978349372
 20
-47.4010486705
 10
-84.9677998719
 20
-48.065380815
 10
-86.1121078428
 20
-48.8390760466
 10
-87.1127124297
 20
-49.7099327294
 10
-87.9538335005
 20
-50.6642169331
 10
-88.6222060736
 20
-51.6868790258
 10
-89.1072895141
 20
-52.7617910155
 10
-89.4014337664
 20
-53.8720008979
 10
-89.5
 20
-55.0
 10
-89.4014337664
 20
-56.1279991021
 10
-89.1072895141
 20
-57.2382089845
 10
-88.6222060736
 20
-58.3131209742
 10
-87.9538335005
 20
-59.3357830669
 10
-87.1127124297
 20
-60.2900672706
 10
-86.1121078428
 20
-61.1609239534
 10
-84.9677998719
 20
-61.934619185
 10
-83.6978349372
 20
-62.5989513295
 10
-82.3222411446
 20
-63.1434434722
 10
-80.8627124297
 20
-63.5595086467
 10
-79.3422664323
 20
-63.8405852566
 10
-77.7848814941
 20
-63.9822405559
 10
-76.2151185059
 20
-63.9822405559
 10
-74.6577335677
 20
-63.8405852566
 10
-73.1372875703
 20
-63.5595086467
 10
-71.6777588554
 20
-63.1434434722
 10
-70.3021650628
 20
-62.5989513295
 10
-69.0322001281
 20
-61.934619185
 10
-67.8878921572
 20
-61.1609239534
 10
-66.8872875703
 20
-60.2900672706
 10
-66.0461664995
 20
-59.3357830669
 10
-65.3777939264
 20
-58.3131209742
 10
-64.8927104859
 20
-57.2382089845
 10
-64.5985662336
 20
-56.1279991021
 10
-64.5
 20
-55.0
  0
LWPOLYLINE
  5
7C
330
1F
100
AcDbEntity
  8
0
  6
Continuous
 62
     7
370
    15
100
AcDbPolyline
 90
       51
 70
   128
 43
0.0
 10
-64.5
 20
-34.0
 10
-64.5985662336
 20
-32.8720008979
 10
-64.8927104859
 20
-31.7617910155
 10
-65.3777939264
 20
-30.6868790258
 10
-66.0461664995
 20
-29.6642169331
 10
-66.8872875703
 20
-28.7099327294
 10
-67.8878921572
 20
-27.8390760466
 10
-69.0322001281
 20
-27.065380815
 10
-70.3021650628
 20
-26.4010486705
 10
-71.6777588554
 20
-25.8565565278
 10
-73.1372875703
 20
-25.4404913533
 10
-74.6577335677
 20
-25.1594147434
 10
-76.2151185059
 20
-25.0177594441
 10
-77.7848814941
 20
-25.0177594441
 10
-79.3422664323
 20
-25.1594147434
 10
-80.8627124297
 20
-25.4404913533
 10
-82.3222411446
 20
-25.8565565278
 10
-83.6978349372
 20
-26.4010486705
 10
-84.9677998719
 20
-27.065380815
 10
-86.1121078428
 20
-27.8390760466
 10
-87.1127124297
 20
-28.7099327294
 10
-87.9538335005
 20
-29.6642169331
 10
-88.6222060736
 20
-30.6868790258
 10
-89.1072895141
 20
-31.7617910155
 10
-89.4014337664
 20
-32.8720008979
 10
-89.5
 20
-34.0
 10
-89.4014337664
 20
-35.1279991021
 10
-89.1072895141
 20
-36.2382089845
 10
-88.6222060736
 20
-37.3131209742
 10
-87.9538335005
 20
-38.3357830669
 10
-87.1127124297
 20
-39.2900672706
 10
-86.1121078428
 20
-40.1609239534
 10
-84.9677998719
 20
-40.934619185
 10
-83.6978349372
 20
-41.5989513295
 10
-82.3222411446
 20
-42.1434434722
 10
-80.8627124297
 20
-42.5595086467
 10
-79.3422664323
 20
-42.8405852566
 10
-77.7848814941
 20
-42.9822405559
 10
-76.2151185059
 20
-42.9822405559
 10
-74.6577335677
 20
-42.8405852566
 10
-73.1372875703
 20
-42.5595086467
 10
-71.6777588554
 20
-42.1434434722
 10
-70.3021650628
 20
-41.5989513295
 10
-69.0322001281
 20
-40.934619185
 10
-67.8878921572
 20
-40.1609239534
 10
-66.8872875703
 20
-39.2900672706
 10
-66.0461664995
 20
-38.3357830669
 10
-65.3777939264
 20
-37.3131209742
 10
-64.8927104859
 20
-36.2382089845
 10
-64.5985662336
 20
-35.1279991021
 10
-64.5
 20
-34.0
  0
LWPOLYLINE
  5
7D
330
1F
100
AcDbEntity
  8
0
  6
Continuous
 62
     7
370
    15
100
AcDbPolyline
 90
       51
 70
   128
 43
0.0
 10
-64.5
 20
-13.0
 10
-64.5985662336
 20
-11.8720008979
 10
-64.8927104859
 20
-10.7617910155
 10
-65.3777939264
 20
-9.6868790258
 10
-66.0461664995
 20
-8.6642169331
 10
-66.8872875703
 20
-7.7099327294
 10
-67.8878921572
 20
-6.8390760466
 10
-69.0322001281
 20
-6.065380815
 10
-70.3021650628
 20
-5.4010486705
 10
-71.6777588554
 20
-4.8565565278
 10
-73.1372875703
 20
-4.4404913533
 10
-74.6577335677
 20
-4.1594147434
 10
-76.2151185059
 20
-4.0177594441
 10
-77.7848814941
 20
-4.0177594441
 10
-79.3422664323
 20
-4.1594147434
 10
-80.8627124297
 20
-4.4404913533
 10
-82.3222411446
 20
-4.8565565278
 10
-83.6978349372
 20
-5.4010486705
 10
-84.9677998719
 20
-6.065380815
 10
-86.1121078428
 20
-6.8390760466
 10
-87.1127124297
 20
-7.7099327294
 10
-87.9538335005
 20
-8.6642169331
 10
-88.6222060736
 20
-9.6868790258
 10
-89.1072895141
 20
-10.7617910155
 10
-89.4014337664
 20
-11.8720008979
 10
-89.5
 20
-13.0
 10
-89.4014337664
 20
-14.1279991021
 10
-89.1072895141
 20
-15.2382089845
 10
-88.6222060736
 20
-16.3131209742
 10
-87.9538335005
 20
-17.3357830669
 10
-87.1127124297
 20
-18.2900672706
 10
-86.1121078428
 20
-19.1609239534
 10
-84.9677998719
 20
-19.934619185
 10
-83.6978349372
 20
-20.5989513295
 10
-82.3222411446
 20
-21.1434434722
 10
-80.8627124297
 20
-21.5595086467
 10
-79.3422664323
 20
-21.8405852566
 10
-77.7848814941
 20
-21.9822405559
 10
-76.2151185059
 20
-21.9822405559
 10
-74.6577335677
 20
-21.8405852566
 10
-73.1372875703
 20
-21.5595086467
 10
-71.6777588554
 20
-21.1434434722
 10
-70.3021650628
 20
-20.5989513295
 10
-69.0322001281
 20
-19.934619185
 10
-67.8878921572
 20
-19.1609239534
 10
-66.8872875703
 20
-18.2900672706
 10
-66.0461664995
 20
-17.3357830669
 10
-65.3777939264
 20
-16.3131209742
 10
-64.8927104859
 20
-15.2382089845
 10
-64.5985662336
 20
-14.1279991021
 10
-64.5
 20
-13.0
  0
LWPOLYLINE
  5
7E
330
1F
100
AcDbEntity
  8
0
  6
Continuous
 62
     7
370
    15
100
AcDbPolyline
 90
       51
 70
   128
 43
0.0
 10
-64.5
 20
8.0
 10
-64.5985662336
 20
9.1279991021
 10
-64.8927104859
 20
10.2382089845
 10
-65.3777939264
 20
11.3131209742
 10
-66.0461664995
 20
12.3357830669
 10
-66.8872875703
 20
13.2900672706
 10
-67.8878921572
 20
14.1609239534
 10
-69.0322001281
 20
14.934619185
 10
-70.3021650628
 20
15.5989513295
 10
-71.6777588554
 20
16.1434434722
 10
-73.1372875703
 20
16.5595086467
 10
-74.6577335677
 20
16.8405852566
 10
-76.2151185059
 20
16.9822405559
 10
-77.7848814941
 20
16.9822405559
 10
-79.3422664323
 20
16.8405852566
 10
-80.8627124297
 20
16.5595086467
 10
-82.3222411446
 20
16.1434434722
 10
-83.6978349372
 20
15.5989513295
 10
-84.9677998719
 20
14.934619185
 10
-86.1121078428
 20
14.1609239534
 10
-87.1127124297
 20
13.2900672706
 10
-87.9538335005
 20
12.3357830669
 10
-88.6222060736
 20
11.3131209742
 10
-89.1072895141
 20
10.2382089845
 10
-89.4014337664
 20
9.1279991021
 10
-89.5
 20
8.0
 10
-89.4014337664
 20
6.8720008979
 10
-89.1072895141
 20
5.7617910155
 10
-88.6222060736
 20
4.6868790258
 10
-87.9538335005
 20
3.6642169331
 10
-87.1127124297
 20
2.7099327294
 10
-86.1121078428
 20
1.8390760466
 10
-84.9677998719
 20
1.065380815
 10
-83.6978349372
 20
0.4010486705
 10
-82.3222411446
 20
-0.1434434722
 10
-80.8627124297
 20
-0.5595086467
 10
-79.3422664323
 20
-0.8405852566
 10
-77.7848814941
 20
-0.9822405559
 10
-76.2151185059
 20
-0.9822405559
 10
-74.6577335677
 20
-0.8405852566
 10
-73.1372875703
 20
-0.5595086467
 10
-71.6777588554
 20
-0.1434434722
 10
-70.3021650628
 20
0.4010486705
 10
-69.0322001281
 20
1.065380815
 10
-67.8878921572
 20
1.8390760466
 10
-66.8872875703
 20
2.7099327294
 10
-66.0461664995
 20
3.6642169331
 10
-65.3777939264
 20
4.6868790258
 10
-64.8927104859
 20
5.7617910155
 10
-64.5985662336
 20
6.8720008979
 10
-64.5
 20
8.0
  0
LWPOLYLINE
  5
7F
330
1F
100
AcDbEntity
  8
0
  6
Continuous
 62
     7
370
    15
100
AcDbPolyline
 90
       51
 70
   128
 43
0.0
 10
-64.5
 20
29.0
 10
-64.5985662336
 20
30.1279991021
 10
-64.8927104859
 20
31.2382089845
 10
-65.3777939264
 20
32.3131209742
 10
-66.0461664995
 20
33.3357830669
 10
-66.8872875703
 20
34.2900672706
 10
-67.8878921572
 20
35.1609239534
 10
-69.0322001281
 20
35.934619185
 10
-70.3021650628
 20
36.5989513295
 10
-71.6777588554
 20
37.1434434722
 10
-73.1372875703
 20
37.5595086467
 10
-74.6577335677
 20
37.8405852566
 10
-76.2151185059
 20
37.9822405559
 10
-77.7848814941
 20
37.9822405559
 10
-79.3422664323
 20
37.8405852566
 10
-80.8627124297
 20
37.5595086467
 10
-82.3222411446
 20
37.1434434722
 10
-83.6978349372
 20
36.5989513295
 10
-84.9677998719
 20
35.934619185
 10
-86.1121078428
 20
35.1609239534
 10
-87.1127124297
 20
34.2900672706
 10
-87.9538335005
 20
33.3357830669
 10
-88.6222060736
 20
32.3131209742
 10
-89.1072895141
 20
31.2382089845
 10
-89.4014337664
 20
30.1279991021
 10
-89.5
 20
29.0
 10
-89.4014337664
 20
27.8720008979
 10
-89.1072895141
 20
26.7617910155
 10
-88.6222060736
 20
25.6868790258
 10
-87.9538335005
 20
24.6642169331
 10
-87.1127124297
 20
23.7099327294
 10
-86.1121078428
 20
22.8390760466
 10
-84.9677998719
 20
22.065380815
 10
-83.6978349372
 20
21.4010486705
 10
-82.3222411446
 20
20.8565565278
 10
-80.8627124297
 20
20.4404913533
 10
-79.3422664323
 20
20.1594147434
 10
-77.7848814941
 20
20.0177594441
 10
-76.2151185059
 20
20.0177594441
 10
-74.6577335677
 20
20.1594147434
 10
-73.1372875703
 20
20.4404913533
 10
-71.6777588554
 20
20.8565565278
 10
-70.3021650628
 20
21.4010486705
 10
-69.0322001281
 20
22.065380815
 10
-67.8878921572
 20
22.8390760466
 10
-66.8872875703
 20
23.7099327294
 10
-66.0461664995
 20
24.6642169331
 10
-65.3777939264
 20
25.6868790258
 10
-64.8927104859
 20
26.7617910155
 10
-64.5985662336
 20
27.8720008979
 10
-64.5
 20
29.0
  0
LWPOLYLINE
  5
80
330
1F
100
AcDbEntity
  8
0
  6
Continuous
 62
     7
370
    15
100
AcDbPolyline
 90
       51
 70
   128
 43
0.0
 10
-26.5
 20
-55.0
 10
-26.5985662336
 20
-53.8720008979
 10
-26.8927104859
 20
-52.7617910155
 10
-27.3777939264
 20
-51.6868790258
 10
-28.0461664995
 20
-50.6642169331
 10
-28.8872875703
 20
-49.7099327294
 10
-29.8878921572
 20
-48.8390760466
 10
-31.0322001281
 20
-48.065380815
 10
-32.3021650628
 20
-47.4010486705
 10
-33.6777588554
 20
-46.8565565278
 10
-35.1372875703
 20
-46.4404913533
 10
-36.6577335677
 20
-46.1594147434
 10
-38.2151185059
 20
-46.0177594441
 10
-39.7848814941
 20
-46.0177594441
 10
-41.3422664323
 20
-46.1594147434
 10
-42.8627124297
 20
-46.4404913533
 10
-44.3222411446
 20
-46.8565565278
 10
-45.6978349372
 20
-47.4010486705
 10
-46.9677998719
 20
-48.065380815
 10
-48.1121078428
 20
-48.8390760466
 10
-49.1127124297
 20
-49.7099327294
 10
-49.9538335005
 20
-50.6642169331
 10
-50.6222060736
 20
-51.6868790258
 10
-51.1072895141
 20
-52.7617910155
 10
-51.4014337664
 20
-53.8720008979
 10
-51.5
 20
-55.0
 10
-51.4014337664
 20
-56.1279991021
 10
-51.1072895141
 20
-57.2382089845
 10
-50.6222060736
 20
-58.3131209742
 10
-49.9538335005
 20
-59.3357830669
 10
-49.1127124297
 20
-60.2900672706
 10
-48.1121078428
 20
-61.1609239534
 10
-46.9677998719
 20
-61.934619185
 10
-45.6978349372
 20
-62.5989513295
 10
-44.3222411446
 20
-63.1434434722
 10
-42.8627124297
 20
-63.5595086467
 10
-41.3422664323
 20
-63.8405852566
 10
-39.7848814941
 20
-63.9822405559
 10
-38.2151185059
 20
-63.9822405559
 10
-36.6577335677
 20
-63.8405852566
 10
-35.1372875703
 20
-63.5595086467
 10
-33.6777588554
 20
-63.1434434722
 10
-32.3021650628
 20
-62.5989513295
 10
-31.0322001281
 20
-61.934619185
 10
-29.8878921572
 20
-61.1609239534
 10
-28.8872875703
 20
-60.2900672706
 10
-28.0461664995
 20
-59.3357830669
 10
-27.3777939264
 20
-58.3131209742
 10
-26.8927104859
 20
-57.2382089845
 10
-26.5985662336
 20
-56.1279991021
 10
-26.5
 20
-55.0
  0
LWPOLYLINE
  5
81
330
1F
100
AcDbEntity
  8
0
  6
Continuous
 62
     7
370
    15
100
AcDbPolyline
 90
       51
 70
   128
 43
0.0
 10
-26.5
 20
-34.0
 10
-26.5985662336
 20
-32.8720008979
 10
-26.8927104859
 20
-31.7617910155
 10
-27.3777939264
 20
-30.6868790258
 10
-28.0461664995
 20
-29.6642169331
 10
-28.8872875703
 20
-28.7099327294
 10
-29.8878921572
 20
-27.8390760466
 10
-31.0322001281
 20
-27.065380815
 10
-32.3021650628
 20
-26.4010486705
 10
-33.6777588554
 20
-25.8565565278
 10
-35.1372875703
 20
-25.4404913533
 10
-36.6577335677
 20
-25.1594147434
 10
-38.2151185059
 20
-25.0177594441
 10
-39.7848814941
 20
-25.0177594441
 10
-41.3422664323
 20
-25.1594147434
 10
-42.8627124297
 20
-25.4404913533
 10
-44.3222411446
 20
-25.8565565278
 10
-45.6978349372
 20
-26.4010486705
 10
-46.9677998719
 20
-27.065380815
 10
-48.1121078428
 20
-27.8390760466
 10
-49.1127124297
 20
-28.7099327294
 10
-49.9538335005
 20
-29.6642169331
 10
-50.6222060736
 20
-30.6868790258
 10
-51.1072895141
 20
-31.7617910155
 10
-51.4014337664
 20
-32.8720008979
 10
-51.5
 20
-34.0
 10
-51.4014337664
 20
-35.1279991021
 10
-51.1072895141
 20
-36.2382089845
 10
-50.6222060736
 20
-37.3131209742
 10
-49.9538335005
 20
-38.3357830669
 10
-49.1127124297
 20
-39.2900672706
 10
-48.1121078428
 20
-40.1609239534
 10
-46.9677998719
 20
-40.934619185
 10
-45.6978349372
 20
-41.5989513295
 10
-44.3222411446
 20
-42.1434434722
 10
-42.8627124297
 20
-42.5595086467
 10
-41.3422664323
 20
-42.8405852566
 10
-39.7848814941
 20
-42.9822405559
 10
-38.2151185059
 20
-42.9822405559
 10
-36.6577335677
 20
-42.8405852566
 10
-35.1372875703
 20
-42.5595086467
 10
-33.6777588554
 20
-42.1434434722
 10
-32.3021650628
 20
-41.5989513295
 10
-31.0322001281
 20
-40.934619185
 10
-29.8878921572
 20
-40.1609239534
 10
-28.8872875703
 20
-39.2900672706
 10
-28.0461664995
 20
-38.3357830669
 10
-27.3777939264
 20
-37.3131209742
 10
-26.8927104859
 20
-36.2382089845
 10
-26.5985662336
 20
-35.1279991021
 10
-26.5
 20
-34.0
  0
LWPOLYLINE
  5
82
330
1F
100
AcDbEntity
  8
0
  6
Continuous
 62
     7
370
    15
100
AcDbPolyline
 90
       51
 70
   128
 43
0.0
 10
-26.5
 20
-13.0
 10
-26.5985662336
 20
-11.8720008979
 10
-26.8927104859
 20
-10.7617910155
 10
-27.3777939264
 20
-9.6868790258
 10
-28.0461664995
 20
-8.6642169331
 10
-28.8872875703
 20
-7.7099327294
 10
-29.8878921572
 20
-6.8390760466
 10
-31.0322001281
 20
-6.065380815
 10
-32.3021650628
 20
-5.4010486705
 10
-33.6777588554
 20
-4.8565565278
 10
-35.1372875703
 20
-4.4404913533
 10
-36.6577335677
 20
-4.1594147434
 10
-38.2151185059
 20
-4.0177594441
 10
-39.7848814941
 20
-4.0177594441
 10
-41.3422664323
 20
-4.1594147434
 10
-42.8627124297
 20
-4.4404913533
 10
-44.3222411446
 20
-4.8565565278
 10
-45.6978349372
 20
-5.4010486705
 10
-46.9677998719
 20
-6.065380815
 10
-48.1121078428
 20
-6.8390760466
 10
-49.1127124297
 20
-7.7099327294
 10
-49.9538335005
 20
-8.6642169331
 10
-50.6222060736
 20
-9.6868790258
 10
-51.1072895141
 20
-10.7617910155
 10
-51.4014337664
 20
-11.8720008979
 10
-51.5
 20
-13.0
 10
-51.4014337664
 20
-14.1279991021
 10
-51.1072895141
 20
-15.2382089845
 10
-50.6222060736
 20
-16.3131209742
 10
-49.9538335005
 20
-17.3357830669
 10
-49.1127124297
 20
-18.2900672706
 10
-48.1121078428
 20
-19.1609239534
 10
-46.9677998719
 20
-19.934619185
 10
-45.6978349372
 20
-20.5989513295
 10
-44.3222411446
 20
-21.1434434722
 10
-42.8627124297
 20
-21.5595086467
 10
-41.3422664323
 20
-21.8405852566
 10
-39.7848814941
 20
-21.9822405559
 10
-38.2151185059
 20
-21.9822405559
 10
-36.6577335677
 20
-21.8405852566
 10
-35.1372875703
 20
-21.5595086467
 10
-33.6777588554
 20
-21.1434434722
 10
-32.3021650628
 20
-20.5989513295
 10
-31.0322001281
 20
-19.934619185
 10
-29.8878921572
 20
-19.1609239534
 10
-28.8872875703
 20
-18.2900672706
 10
-28.0461664995
 20
-17.3357830669
 10
-27.3777939264
 20
-16.3131209742
 10
-26.8927104859
 20
-15.2382089845
 10
-26.5985662336
 20
-14.1279991021
 10
-26.5
 20
-13.0
  0
LWPOLYLINE
  5
83
330
1F
100
AcDbEntity
  8
0
  6
Continuous
 62
     7
370
    15
100
AcDbPolyline
 90
       51
 70
   128
 43
0.0
 10
-26.5
 20
8.0
 10
-26.5985662336
 20
9.1279991021
 10
-26.8927104859
 20
10.2382089845
 10
-27.3777939264
 20
11.3131209742
 10
-28.0461664995
 20
12.3357830669
 10
-28.8872875703
 20
13.2900672706
 10
-29.8878921572
 20
14.1609239534
 10
-31.0322001281
 20
14.934619185
 10
-32.3021650628
 20
15.5989513295
 10
-33.6777588554
 20
16.1434434722
 10
-35.1372875703
 20
16.5595086467
 10
-36.6577335677
 20
16.8405852566
 10
-38.2151185059
 20
16.9822405559
 10
-39.7848814941
 20
16.9822405559
 10
-41.3422664323
 20
16.8405852566
 10
-42.8627124297
 20
16.5595086467
 10
-44.3222411446
 20
16.1434434722
 10
-45.6978349372
 20
15.5989513295
 10
-46.9677998719
 20
14.934619185
 10
-48.1121078428
 20
14.1609239534
 10
-49.1127124297
 20
13.2900672706
 10
-49.9538335005
 20
12.3357830669
 10
-50.6222060736
 20
11.3131209742
 10
-51.1072895141
 20
10.2382089845
 10
-51.4014337664
 20
9.1279991021
 10
-51.5
 20
8.0
 10
-51.4014337664
 20
6.8720008979
 10
-51.1072895141
 20
5.7617910155
 10
-50.6222060736
 20
4.6868790258
 10
-49.9538335005
 20
3.6642169331
 10
-49.1127124297
 20
2.7099327294
 10
-48.1121078428
 20
1.8390760466
 10
-46.9677998719
 20
1.065380815
 10
-45.6978349372
 20
0.4010486705
 10
-44.3222411446
 20
-0.1434434722
 10
-42.8627124297
 20
-0.5595086467
 10
-41.3422664323
 20
-0.8405852566
 10
-39.7848814941
 20
-0.9822405559
 10
-38.2151185059
 20
-0.9822405559
 10
-36.6577335677
 20
-0.8405852566
 10
-35.1372875703
 20
-0.5595086467
 10
-33.6777588554
 20
-0.1434434722
 10
-32.3021650628
 20
0.4010486705
 10
-31.0322001281
 20
1.065380815
 10
-29.8878921572
 20
1.8390760466
 10
-28.8872875703
 20
2.7099327294
 10
-28.0461664995
 20
3.6642169331
 10
-27.3777939264
 20
4.6868790258
 10
-26.8927104859
 20
5.7617910155
 10
-26.5985662336
 20
6.8720008979
 10
-26.5
 20
8.0
  0
LWPOLYLINE
  5
84
330
1F
100
AcDbEntity
  8
0
  6
Continuous
 62
     7
370
    15
100
AcDbPolyline
 90
       51
 70
   128
 43
0.0
 10
-26.5
 20
29.0
 10
-26.5985662336
 20
30.1279991021
 10
-26.8927104859
 20
31.2382089845
 10
-27.3777939264
 20
32.3131209742
 10
-28.0461664995
 20
33.3357830669
 10
-28.8872875703
 20
34.2900672706
 10
-29.8878921572
 20
35.1609239534
 10
-31.0322001281
 20
35.934619185
 10
-32.3021650628
 20
36.5989513295
 10
-33.6777588554
 20
37.1434434722
 10
-35.1372875703
 20
37.5595086467
 10
-36.6577335677
 20
37.8405852566
 10
-38.2151185059
 20
37.9822405559
 10
-39.7848814941
 20
37.9822405559
 10
-41.3422664323
 20
37.8405852566
 10
-42.8627124297
 20
37.5595086467
 10
-44.3222411446
 20
37.1434434722
 10
-45.6978349372
 20
36.5989513295
 10
-46.9677998719
 20
35.934619185
 10
-48.1121078428
 20
35.1609239534
 10
-49.1127124297
 20
34.2900672706
 10
-49.9538335005
 20
33.3357830669
 10
-50.6222060736
 20
32.3131209742
 10
-51.1072895141
 20
31.2382089845
 10
-51.4014337664
 20
30.1279991021
 10
-51.5
 20
29.0
 10
-51.4014337664
 20
27.8720008979
 10
-51.1072895141
 20
26.7617910155
 10
-50.6222060736
 20
25.6868790258
 10
-49.9538335005
 20
24.6642169331
 10
-49.1127124297
 20
23.7099327294
 10
-48.1121078428
 20
22.8390760466
 10
-46.9677998719
 20
22.065380815
 10
-45.6978349372
 20
21.4010486705
 10
-44.3222411446
 20
20.8565565278
 10
-42.8627124297
 20
20.4404913533
 10
-41.3422664323
 20
20.1594147434
 10
-39.7848814941
 20
20.0177594441
 10
-38.2151185059
 20
20.0177594441
 10
-36.6577335677
 20
20.1594147434
 10
-35.1372875703
 20
20.4404913533
 10
-33.6777588554
 20
20.8565565278
 10
-32.3021650628
 20
21.4010486705
 10
-31.0322001281
 20
22.065380815
 10
-29.8878921572
 20
22.8390760466
 10
-28.8872875703
 20
23.7099327294
 10
-28.0461664995
 20
24.6642169331
 10
-27.3777939264
 20
25.6868790258
 10
-26.8927104859
 20
26.7617910155
 10
-26.5985662336
 20
27.8720008979
 10
-26.5
 20
29.0
  0
LWPOLYLINE
  5
85
330
1F
100
AcDbEntity
  8
0
  6
Continuous
 62
     7
370
    15
100
AcDbPolyline
 90
       51
 70
   128
 43
0.0
 10
11.5
 20
-55.0
 10
11.4014337664
 20
-53.8720008979
 10
11.1072895141
 20
-52.7617910155
 10
10.6222060736
 20
-51.6868790258
 10
9.9538335005
 20
-50.6642169331
 10
9.1127124297
 20
-49.7099327294
 10
8.1121078428
 20
-48.8390760466
 10
6.9677998719
 20
-48.065380815
 10
5.6978349372
 20
-47.4010486705
 10
4.3222411446
 20
-46.8565565278
 10
2.8627124297
 20
-46.4404913533
 10
1.3422664323
 20
-46.1594147434
 10
-0.2151185059
 20
-46.0177594441
 10
-1.7848814941
 20
-46.0177594441
 10
-3.3422664323
 20
-46.1594147434
 10
-4.8627124297
 20
-46.4404913533
 10
-6.3222411446
 20
-46.8565565278
 10
-7.6978349372
 20
-47.4010486705
 10
-8.9677998719
 20
-48.065380815
 10
-10.1121078428
 20
-48.8390760466
 10
-11.1127124297
 20
-49.7099327294
 10
-11.9538335005
 20
-50.6642169331
 10
-12.6222060736
 20
-51.6868790258
 10
-13.1072895141
 20
-52.7617910155
 10
-13.4014337664
 20
-53.8720008979
 10
-13.5
 20
-55.0
 10
-13.4014337664
 20
-56.1279991021
 10
-13.1072895141
 20
-57.2382089845
 10
-12.6222060736
 20
-58.3131209742
 10
-11.9538335005
 20
-59.3357830669
 10
-11.1127124297
 20
-60.2900672706
 10
-10.1121078428
 20
-61.1609239534
 10
-8.9677998719
 20
-61.934619185
 10
-7.6978349372
 20
-62.5989513295
 10
-6.3222411446
 20
-63.1434434722
 10
-4.8627124297
 20
-63.5595086467
 10
-3.3422664323
 20
-63.8405852566
 10
-1.7848814941
 20
-63.9822405559
 10
-0.2151185059
 20
-63.9822405559
 10
1.3422664323
 20
-63.8405852566
 10
2.8627124297
 20
-63.5595086467
 10
4.3222411446
 20
-63.1434434722
 10
5.6978349372
 20
-62.5989513295
 10
6.9677998719
 20
-61.934619185
 10
8.1121078428
 20
-61.1609239534
 10
9.1127124297
 20
-60.2900672706
 10
9.9538335005
 20
-59.3357830669
 10
10.6222060736
 20
-58.3131209742
 10
11.1072895141
 20
-57.2382089845
 10
11.4014337664
 20
-56.1279991021
 10
11.5
 20
-55.0
  0
LWPOLYLINE
  5
86
330
1F
100
AcDbEntity
  8
0
  6
Continuous
 62
     7
370
    15
100
AcDbPolyline
 90
       51
 70
   128
 43
0.0
 10
11.5
 20
-34.0
 10
11.4014337664
 20
-32.8720008979
 10
11.1072895141
 20
-31.7617910155
 10
10.6222060736
 20
-30.6868790258
 10
9.9538335005
 20
-29.6642169331
 10
9.1127124297
 20
-28.7099327294
 10
8.1121078428
 20
-27.8390760466
 10
6.9677998719
 20
-27.065380815
 10
5.6978349372
 20
-26.4010486705
 10
4.3222411446
 20
-25.8565565278
 10
2.8627124297
 20
-25.4404913533
 10
1.3422664323
 20
-25.1594147434
 10
-0.2151185059
 20
-25.0177594441
 10
-1.7848814941
 20
-25.0177594441
 10
-3.3422664323
 20
-25.1594147434
 10
-4.8627124297
 20
-25.4404913533
 10
-6.3222411446
 20
-25.8565565278
 10
-7.6978349372
 20
-26.4010486705
 10
-8.9677998719
 20
-27.065380815
 10
-10.1121078428
 20
-27.8390760466
 10
-11.1127124297
 20
-28.7099327294
 10
-11.9538335005
 20
-29.6642169331
 10
-12.6222060736
 20
-30.6868790258
 10
-13.1072895141
 20
-31.7617910155
 10
-13.4014337664
 20
-32.8720008979
 10
-13.5
 20
-34.0
 10
-13.4014337664
 20
-35.1279991021
 10
-13.1072895141
 20
-36.2382089845
 10
-12.6222060736
 20
-37.3131209742
 10
-11.9538335005
 20
-38.3357830669
 10
-11.1127124297
 20
-39.2900672706
 10
-10.1121078428
 20
-40.1609239534
 10
-8.9677998719
 20
-40.934619185
 10
-7.6978349372
 20
-41.5989513295
 10
-6.3222411446
 20
-42.1434434722
 10
-4.8627124297
 20
-42.5595086467
 10
-3.3422664323
 20
-42.8405852566
 10
-1.7848814941
 20
-42.9822405559
 10
-0.2151185059
 20
-42.9822405559
 10
1.3422664323
 20
-42.8405852566
 10
2.8627124297
 20
-42.5595086467
 10
4.3222411446
 20
-42.1434434722
 10
5.6978349372
 20
-41.5989513295
 10
6.9677998719
 20
-40.934619185
 10
8.1121078428
 20
-40.1609239534
 10
9.1127124297
 20
-39.2900672706
 10
9.9538335005
 20
-38.3357830669
 10
10.6222060736
 20
-37.3131209742
 10
11.1072895141
 20
-36.2382089845
 10
11.4014337664
 20
-35.1279991021
 10
11.5
 20
-34.0
  0
LWPOLYLINE
  5
87
330
1F
100
AcDbEntity
  8
0
  6
Continuous
 62
     7
370
    15
100
AcDbPolyline
 90
       51
 70
   128
 43
0.0
 10
11.5
 20
-13.0
 10
11.4014337664
 20
-11.8720008979
 10
11.1072895141
 20
-10.7617910155
 10
10.6222060736
 20
-9.6868790258
 10
9.9538335005
 20
-8.6642169331
 10
9.1127124297
 20
-7.7099327294
 10
8.1121078428
 20
-6.8390760466
 10
6.9677998719
 20
-6.065380815
 10
5.6978349372
 20
-5.4010486705
 10
4.3222411446
 20
-4.8565565278
 10
2.8627124297
 20
-4.4404913533
 10
1.3422664323
 20
-4.1594147434
 10
-0.2151185059
 20
-4.0177594441
 10
-1.7848814941
 20
-4.0177594441
 10
-3.3422664323
 20
-4.1594147434
 10
-4.8627124297
 20
-4.4404913533
 10
-6.3222411446
 20
-4.8565565278
 10
-7.6978349372
 20
-5.4010486705
 10
-8.9677998719
 20
-6.065380815
 10
-10.1121078428
 20
-6.8390760466
 10
-11.1127124297
 20
-7.7099327294
 10
-11.9538335005
 20
-8.6642169331
 10
-12.6222060736
 20
-9.6868790258
 10
-13.1072895141
 20
-10.7617910155
 10
-13.4014337664
 20
-11.8720008979
 10
-13.5
 20
-13.0
 10
-13.4014337664
 20
-14.1279991021
 10
-13.1072895141
 20
-15.2382089845
 10
-12.6222060736
 20
-16.3131209742
 10
-11.9538335005
 20
-17.3357830669
 10
-11.1127124297
 20
-18.2900672706
 10
-10.1121078428
 20
-19.1609239534
 10
-8.9677998719
 20
-19.934619185
 10
-7.6978349372
 20
-20.5989513295
 10
-6.3222411446
 20
-21.1434434722
 10
-4.8627124297
 20
-21.5595086467
 10
-3.3422664323
 20
-21.8405852566
 10
-1.7848814941
 20
-21.9822405559
 10
-0.2151185059
 20
-21.9822405559
 10
1.3422664323
 20
-21.8405852566
 10
2.8627124297
 20
-21.5595086467
 10
4.3222411446
 20
-21.1434434722
 10
5.6978349372
 20
-20.5989513295
 10
6.9677998719
 20
-19.934619185
 10
8.1121078428
 20
-19.1609239534
 10
9.1127124297
 20
-18.2900672706
 10
9.9538335005
 20
-17.3357830669
 10
10.6222060736
 20
-16.3131209742
 10
11.1072895141
 20
-15.2382089845
 10
11.4014337664
 20
-14.1279991021
 10
11.5
 20
-13.0
  0
LWPOLYLINE
  5
88
330
1F
100
AcDbEntity
  8
0
  6
Continuous
 62
     7
370
    15
100
AcDbPolyline
 90
       51
 70
   128
 43
0.0
 10
49.5
 20
-55.0
 10
49.4014337664
 20
-53.8720008979
 10
49.1072895141
 20
-52.7617910155
 10
48.6222060736
 20
-51.6868790258
 10
47.9538335005
 20
-50.6642169331
 10
47.1127124297
 20
-49.7099327294
 10
46.1121078428
 20
-48.8390760466
 10
44.9677998719
 20
-48.065380815
 10
43.6978349372
 20
-47.4010486705
 10
42.3222411446
 20
-46.8565565278
 10
40.8627124297
 20
-46.4404913533
 10
39.3422664323
 20
-46.1594147434
 10
37.7848814941
 20
-46.0177594441
 10
36.2151185059
 20
-46.0177594441
 10
34.6577335677
 20
-46.1594147434
 10
33.1372875703
 20
-46.4404913533
 10
31.6777588554
 20
-46.8565565278
 10
30.3021650628
 20
-47.4010486705
 10
29.0322001281
 20
-48.065380815
 10
27.8878921572
 20
-48.8390760466
 10
26.8872875703
 20
-49.7099327294
 10
26.0461664995
 20
-50.6642169331
 10
25.3777939264
 20
-51.6868790258
 10
24.8927104859
 20
-52.7617910155
 10
24.5985662336
 20
-53.8720008979
 10
24.5
 20
-55.0
 10
24.5985662336
 20
-56.1279991021
 10
24.8927104859
 20
-57.2382089845
 10
25.3777939264
 20
-58.3131209742
 10
26.0461664995
 20
-59.3357830669
 10
26.8872875703
 20
-60.2900672706
 10
27.8878921572
 20
-61.1609239534
 10
29.0322001281
 20
-61.934619185
 10
30.3021650628
 20
-62.5989513295
 10
31.6777588554
 20
-63.1434434722
 10
33.1372875703
 20
-63.5595086467
 10
34.6577335677
 20
-63.8405852566
 10
36.2151185059
 20
-63.9822405559
 10
37.7848814941
 20
-63.9822405559
 10
39.3422664323
 20
-63.8405852566
 10
40.8627124297
 20
-63.5595086467
 10
42.3222411446
 20
-63.1434434722
 10
43.6978349372
 20
-62.5989513295
 10
44.9677998719
 20
-61.934619185
 10
46.1121078428
 20
-61.1609239534
 10
47.1127124297
 20
-60.2900672706
 10
47.9538335005
 20
-59.3357830669
 10
48.6222060736
 20
-58.3131209742
 10
49.1072895141
 20
-57.2382089845
 10
49.4014337664
 20
-56.1279991021
 10
49.5
 20
-55.0
  0
LWPOLYLINE
  5
89
330
1F
100
AcDbEntity
  8
0
  6
Continuous
 62
     7
370
    15
100
AcDbPolyline
 90
       51
 70
   128
 43
0.0
 10
49.5
 20
8.0
 10
49.4014337664
 20
9.1279991021
 10
49.1072895141
 20
10.2382089845
 10
48.6222060736
 20
11.3131209742
 10
47.9538335005
 20
12.3357830669
 10
47.1127124297
 20
13.2900672706
 10
46.1121078428
 20
14.1609239534
 10
44.9677998719
 20
14.934619185
 10
43.6978349372
 20
15.5989513295
 10
42.3222411446
 20
16.1434434722
 10
40.8627124297
 20
16.5595086467
 10
39.3422664323
 20
16.8405852566
 10
37.7848814941
 20
16.9822405559
 10
36.2151185059
 20
16.9822405559
 10
34.6577335677
 20
16.8405852566
 10
33.1372875703
 20
16.5595086467
 10
31.6777588554
 20
16.1434434722
 10
30.3021650628
 20
15.5989513295
 10
29.0322001281
 20
14.934619185
 10
27.8878921572
 20
14.1609239534
 10
26.8872875703
 20
13.2900672706
 10
26.0461664995
 20
12.3357830669
 10
25.3777939264
 20
11.3131209742
 10
24.8927104859
 20
10.2382089845
 10
24.5985662336
 20
9.1279991021
 10
24.5
 20
8.0
 10
24.5985662336
 20
6.8720008979
 10
24.8927104859
 20
5.7617910155
 10
25.3777939264
 20
4.6868790258
 10
26.0461664995
 20
3.6642169331
 10
26.8872875703
 20
2.7099327294
 10
27.8878921572
 20
1.8390760466
 10
29.0322001281
 20
1.065380815
 10
30.3021650628
 20
0.4010486705
 10
31.6777588554
 20
-0.1434434722
 10
33.1372875703
 20
-0.5595086467
 10
34.6577335677
 20
-0.8405852566
 10
36.2151185059
 20
-0.9822405559
 10
37.7848814941
 20
-0.9822405559
 10
39.3422664323
 20
-0.8405852566
 10
40.8627124297
 20
-0.5595086467
 10
42.3222411446
 20
-0.1434434722
 10
43.6978349372
 20
0.4010486705
 10
44.9677998719
 20
1.065380815
 10
46.1121078428
 20
1.8390760466
 10
47.1127124297
 20
2.7099327294
 10
47.9538335005
 20
3.6642169331
 10
48.6222060736
 20
4.6868790258
 10
49.1072895141
 20
5.7617910155
 10
49.4014337664
 20
6.8720008979
 10
49.5
 20
8.0
  0
LWPOLYLINE
  5
8A
330
1F
100
AcDbEntity
  8
0
  6
Continuous
 62
     7
370
    15
100
AcDbPolyline
 90
       51
 70
   128
 43
0.0
 10
87.5
 20
-34.0
 10
87.4014337664
 20
-32.8720008979
 10
87.1072895141
 20
-31.7617910155
 10
86.6222060736
 20
-30.6868790258
 10
85.9538335005
 20
-29.6642169331
 10
85.1127124297
 20
-28.7099327294
 10
84.1121078428
 20
-27.8390760466
 10
82.9677998719
 20
-27.065380815
 10
81.6978349372
 20
-26.4010486705
 10
80.3222411446
 20
-25.8565565278
 10
78.8627124297
 20
-25.4404913533
 10
77.3422664323
 20
-25.1594147434
 10
75.7848814941
 20
-25.0177594441
 10
74.2151185059
 20
-25.0177594441
 10
72.6577335677
 20
-25.1594147434
 10
71.1372875703
 20
-25.4404913533
 10
69.6777588554
 20
-25.8565565278
 10
68.3021650628
 20
-26.4010486705
 10
67.0322001281
 20
-27.065380815
 10
65.8878921572
 20
-27.8390760466
 10
64.8872875703
 20
-28.7099327294
 10
64.0461664995
 20
-29.6642169331
 10
63.3777939264
 20
-30.6868790258
 10
62.8927104859
 20
-31.7617910155
 10
62.5985662336
 20
-32.8720008979
 10
62.5
 20
-34.0
 10
62.5985662336
 20
-35.1279991021
 10
62.8927104859
 20
-36.2382089845
 10
63.3777939264
 20
-37.3131209742
 10
64.0461664995
 20
-38.3357830669
 10
64.8872875703
 20
-39.2900672706
 10
65.8878921572
 20
-40.1609239534
 10
67.0322001281
 20
-40.934619185
 10
68.3021650628
 20
-41.5989513295
 10
69.6777588554
 20
-42.1434434722
 10
71.1372875703
 20
-42.5595086467
 10
72.6577335677
 20
-42.8405852566
 10
74.2151185059
 20
-42.9822405559
 10
75.7848814941
 20
-42.9822405559
 10
77.3422664323
 20
-42.8405852566
 10
78.8627124297
 20
-42.5595086467
 10
80.3222411446
 20
-42.1434434722
 10
81.6978349372
 20
-41.5989513295
 10
82.9677998719
 20
-40.934619185
 10
84.1121078428
 20
-40.1609239534
 10
85.1127124297
 20
-39.2900672706
 10
85.9538335005
 20
-38.3357830669
 10
86.6222060736
 20
-37.3131209742
 10
87.1072895141
 20
-36.2382089845
 10
87.4014337664
 20
-35.1279991021
 10
87.5
 20
-34.0
  0
LWPOLYLINE
  5
8B
330
1F
100
AcDbEntity
  8
0
  6
Continuous
 62
     7
370
    15
100
AcDbPolyline
 90
       51
 70
   128
 43
0.0
 10
87.5
 20
29.0
 10
87.4014337664
 20
30.1279991021
 10
87.1072895141
 20
31.2382089845
 10
86.6222060736
 20
32.3131209742
 10
85.9538335005
 20
33.3357830669
 10
85.1127124297
 20
34.2900672706
 10
84.1121078428
 20
35.1609239534
 10
82.9677998719
 20
35.934619185
 10
81.6978349372
 20
36.5989513295
 10
80.3222411446
 20
37.1434434722
 10
78.8627124297
 20
37.5595086467
 10
77.3422664323
 20
37.8405852566
 10
75.7848814941
 20
37.9822405559
 10
74.2151185059
 20
37.9822405559
 10
72.6577335677
 20
37.8405852566
 10
71.1372875703
 20
37.5595086467
 10
69.6777588554
 20
37.1434434722
 10
68.3021650628
 20
36.5989513295
 10
67.0322001281
 20
35.934619185
 10
65.8878921572
 20
35.1609239534
 10
64.8872875703
 20
34.2900672706
 10
64.0461664995
 20
33.3357830669
 10
63.3777939264
 20
32.3131209742
 10
62.8927104859
 20
31.2382089845
 10
62.5985662336
 20
30.1279991021
 10
62.5
 20
29.0
 10
62.5985662336
 20
27.8720008979
 10
62.8927104859
 20
26.7617910155
 10
63.3777939264
 20
25.6868790258
 10
64.0461664995
 20
24.6642169331
 10
64.8872875703
 20
23.7099327294
 10
65.8878921572
 20
22.8390760466
 10
67.0322001281
 20
22.065380815
 10
68.3021650628
 20
21.4010486705
 10
69.6777588554
 20
20.8565565278
 10
71.1372875703
 20
20.4404913533
 10
72.6577335677
 20
20.1594147434
 10
74.2151185059
 20
20.0177594441
 10
75.7848814941
 20
20.0177594441
 10
77.3422664323
 20
20.1594147434
 10
78.8627124297
 20
20.4404913533
 10
80.3222411446
 20
20.8565565278
 10
81.6978349372
 20
21.4010486705
 10
82.9677998719
 20
22.065380815
 10
84.1121078428
 20
22.8390760466
 10
85.1127124297
 20
23.7099327294
 10
85.9538335005
 20
24.6642169331
 10
86.6222060736
 20
25.6868790258
 10
87.1072895141
 20
26.7617910155
 10
87.4014337664
 20
27.8720008979
 10
87.5
 20
29.0
  0
LWPOLYLINE
  5
8C
330
1F
100
AcDbEntity
  8
0
  6
Continuous
 62
     7
370
    15
100
AcDbPolyline
 90
       45
 70
   128
 43
0.0
 10
101.0
 20
61.0
 10
100.8982144188
 20
62.2808335445
 10
100.5949297361
 20
63.5355930116
 10
100.0963199535
 20
64.738735117
 10
99.4125353283
 20
65.8657673571
 10
98.5574957435
 20
66.8937466055
 10
97.5486073395
 20
67.8017461692
 10
96.4064081746
 20
68.5712817955
 10
95.15415013
 20
69.1866879582
 10
93.8173255684
 20
69.6354367625
 10
92.4231483827
 20
69.9083929769
 10
91.0
 20
70.0
 10
89.5768516173
 20
69.9083929769
 10
88.1826744316
 20
69.6354367625
 10
86.84584987
 20
69.1866879582
 10
85.5935918254
 20
68.5712817955
 10
84.4513926605
 20
67.8017461692
 10
83.4425042565
 20
66.8937466055
 10
82.5874646717
 20
65.8657673571
 10
81.9036800465
 20
64.738735117
 10
81.4050702639
 20
63.5355930116
 10
81.1017855812
 20
62.2808335445
 10
81.0
 20
61.0
 10
81.1017855812
 20
59.7191664555
 10
81.4050702639
 20
58.4644069884
 10
81.9036800465
 20
57.261264883
 10
82.5874646717
 20
56.1342326429
 10
83.4425042565
 20
55.1062533945
 10
84.4513926605
 20
54.1982538308
 10
85.5935918254
 20
53.4287182045
 10
86.84584987
 20
52.8133120418
 10
88.1826744316
 20
52.3645632375
 10
89.5768516173
 20
52.0916070231
 10
91.0
 20
52.0
 10
92.4231483827
 20
52.0916070231
 10
93.8173255684
 20
52.3645632375
 10
95.15415013
 20
52.8133120418
 10
96.4064081746
 20
53.4287182045
 10
97.5486073395
 20
54.1982538308
 10
98.5574957435
 20
55.1062533945
 10
99.4125353283
 20
56.1342326429
 10
100.0963199535
 20
57.261264883
 10
100.5949297361
 20
58.4644069884
 10
100.8982144188
 20
59.7191664555
 10
101.0
 20
61.0
  0
LWPOLYLINE
  5
A2
330
1F
100
AcDbEntity
  8
0
  6
Continuous
 62
     7
370
    15
100
AcDbPolyline
 90
       51
 70
   128
 43
0.0
 10
87.5
 20
8.0
 10
87.4014337664
 20
9.1279991021
 10
87.1072895141
 20
10.2382089845
 10
86.6222060736
 20
11.3131209742
 10
85.9538335005
 20
12.3357830669
 10
85.1127124297
 20
13.2900672706
 10
84.1121078428
 20
14.1609239534
 10
82.9677998719
 20
14.934619185
 10
81.6978349372
 20
15.5989513295
 10
80.3222411446
 20
16.1434434722
 10
78.8627124297
 20
16.5595086467
 10
77.3422664323
 20
16.8405852566
 10
75.7848814941
 20
16.9822405559
 10
74.2151185059
 20
16.9822405559
 10
72.6577335677
 20
16.8405852566
 10
71.1372875703
 20
16.5595086467
 10
69.6777588554
 20
16.1434434722
 10
68.3021650628
 20
15.5989513295
 10
67.0322001281
 20
14.934619185
 10
65.8878921572
 20
14.1609239534
 10
64.8872875703
 20
13.2900672706
 10
64.0461664995
 20
12.3357830669
 10
63.3777939264
 20
11.3131209742
 10
62.8927104859
 20
10.2382089845
 10
62.5985662336
 20
9.1279991021
 10
62.5
 20
8.0
 10
62.5985662336
 20
6.8720008979
 10
62.8927104859
 20
5.7617910155
 10
63.3777939264
 20
4.6868790258
 10
64.0461664995
 20
3.6642169331
 10
64.8872875703
 20
2.7099327294
 10
65.8878921572
 20
1.8390760466
 10
67.0322001281
 20
1.065380815
 10
68.3021650628
 20
0.4010486705
 10
69.6777588554
 20
-0.1434434722
 10
71.1372875703
 20
-0.5595086467
 10
72.6577335677
 20
-0.8405852566
 10
74.2151185059
 20
-0.9822405559
 10
75.7848814941
 20
-0.9822405559
 10
77.3422664323
 20
-0.8405852566
 10
78.8627124297
 20
-0.5595086467
 10
80.3222411446
 20
-0.1434434722
 10
81.6978349372
 20
0.4010486705
 10
82.9677998719
 20
1.065380815
 10
84.1121078428
 20
1.8390760466
 10
85.1127124297
 20
2.7099327294
 10
85.9538335005
 20
3.6642169331
 10
86.6222060736
 20
4.6868790258
 10
87.1072895141
 20
5.7617910155
 10
87.4014337664
 20
6.8720008979
 10
87.5
 20
8.0
  0
LWPOLYLINE
  5
A3
330
1F
100
AcDbEntity
  8
0
  6
Continuous
 62
     7
370
    15
100
AcDbPolyline
 90
       51
 70
   128
 43
0.0
 10
87.5
 20
-13.0
 10
87.4014337664
 20
-11.8720008979
 10
87.1072895141
 20
-10.7617910155
 10
86.6222060736
 20
-9.6868790258
 10
85.9538335005
 20
-8.6642169331
 10
85.1127124297
 20
-7.7099327294
 10
84.1121078428
 20
-6.8390760466
 10
82.9677998719
 20
-6.065380815
 10
81.6978349372
 20
-5.4010486705
 10
80.3222411446
 20
-4.8565565278
 10
78.8627124297
 20
-4.4404913533
 10
77.3422664323
 20
-4.1594147434
 10
75.7848814941
 20
-4.0177594441
 10
74.2151185059
 20
-4.0177594441
 10
72.6577335677
 20
-4.1594147434
 10
71.1372875703
 20
-4.4404913533
 10
69.6777588554
 20
-4.8565565278
 10
68.3021650628
 20
-5.4010486705
 10
67.0322001281
 20
-6.065380815
 10
65.8878921572
 20
-6.8390760466
 10
64.8872875703
 20
-7.7099327294
 10
64.0461664995
 20
-8.6642169331
 10
63.3777939264
 20
-9.6868790258
 10
62.8927104859
 20
-10.7617910155
 10
62.5985662336
 20
-11.8720008979
 10
62.5
 20
-13.0
 10
62.5985662336
 20
-14.1279991021
 10
62.8927104859
 20
-15.2382089845
 10
63.3777939264
 20
-16.3131209742
 10
64.0461664995
 20
-17.3357830669
 10
64.8872875703
 20
-18.2900672706
 10
65.8878921572
 20
-19.1609239534
 10
67.0322001281
 20
-19.934619185
 10
68.3021650628
 20
-20.5989513295
 10
69.6777588554
 20
-21.1434434722
 10
71.1372875703
 20
-21.5595086467
 10
72.6577335677
 20
-21.8405852566
 10
74.2151185059
 20
-21.9822405559
 10
75.7848814941
 20
-21.9822405559
 10
77.3422664323
 20
-21.8405852566
 10
78.8627124297
 20
-21.5595086467
 10
80.3222411446
 20
-21.1434434722
 10
81.6978349372
 20
-20.5989513295
 10
82.9677998719
 20
-19.934619185
 10
84.1121078428
 20
-19.1609239534
 10
85.1127124297
 20
-18.2900672706
 10
85.9538335005
 20
-17.3357830669
 10
86.6222060736
 20
-16.3131209742
 10
87.1072895141
 20
-15.2382089845
 10
87.4014337664
 20
-14.1279991021
 10
87.5
 20
-13.0
  0
LWPOLYLINE
  5
A5
330
1F
100
AcDbEntity
  8
0
  6
Continuous
 62
     7
370
    15
100
AcDbPolyline
 90
       51
 70
   128
 43
0.0
 10
87.5
 20
-55.0
 10
87.4014337664
 20
-53.8720008979
 10
87.1072895141
 20
-52.7617910155
 10
86.6222060736
 20
-51.6868790258
 10
85.9538335005
 20
-50.6642169331
 10
85.1127124297
 20
-49.7099327294
 10
84.1121078428
 20
-48.8390760466
 10
82.9677998719
 20
-48.065380815
 10
81.6978349372
 20
-47.4010486705
 10
80.3222411446
 20
-46.8565565278
 10
78.8627124297
 20
-46.4404913533
 10
77.3422664323
 20
-46.1594147434
 10
75.7848814941
 20
-46.0177594441
 10
74.2151185059
 20
-46.0177594441
 10
72.6577335677
 20
-46.1594147434
 10
71.1372875703
 20
-46.4404913533
 10
69.6777588554
 20
-46.8565565278
 10
68.3021650628
 20
-47.4010486705
 10
67.0322001281
 20
-48.065380815
 10
65.8878921572
 20
-48.8390760466
 10
64.8872875703
 20
-49.7099327294
 10
64.0461664995
 20
-50.6642169331
 10
63.3777939264
 20
-51.6868790258
 10
62.8927104859
 20
-52.7617910155
 10
62.5985662336
 20
-53.8720008979
 10
62.5
 20
-55.0
 10
62.5985662336
 20
-56.1279991021
 10
62.8927104859
 20
-57.2382089845
 10
63.3777939264
 20
-58.3131209742
 10
64.0461664995
 20
-59.3357830669
 10
64.8872875703
 20
-60.2900672706
 10
65.8878921572
 20
-61.1609239534
 10
67.0322001281
 20
-61.934619185
 10
68.3021650628
 20
-62.5989513295
 10
69.6777588554
 20
-63.1434434722
 10
71.1372875703
 20
-63.5595086467
 10
72.6577335677
 20
-63.8405852566
 10
74.2151185059
 20
-63.9822405559
 10
75.7848814941
 20
-63.9822405559
 10
77.3422664323
 20
-63.8405852566
 10
78.8627124297
 20
-63.5595086467
 10
80.3222411446
 20
-63.1434434722
 10
81.6978349372
 20
-62.5989513295
 10
82.9677998719
 20
-61.934619185
 10
84.1121078428
 20
-61.1609239534
 10
85.1127124297
 20
-60.2900672706
 10
85.9538335005
 20
-59.3357830669
 10
86.6222060736
 20
-58.3131209742
 10
87.1072895141
 20
-57.2382089845
 10
87.4014337664
 20
-56.1279991021
 10
87.5
 20
-55.0
  0
LWPOLYLINE
  5
A6
330
1F
100
AcDbEntity
  8
0
  6
Continuous
 62
     7
370
    15
100
AcDbPolyline
 90
       51
 70
   128
 43
0.0
 10
49.5
 20
29.0
 10
49.4014337664
 20
30.1279991021
 10
49.1072895141
 20
31.2382089845
 10
48.6222060736
 20
32.3131209742
 10
47.9538335005
 20
33.3357830669
 10
47.1127124297
 20
34.2900672706
 10
46.1121078428
 20
35.1609239534
 10
44.9677998719
 20
35.934619185
 10
43.6978349372
 20
36.5989513295
 10
42.3222411446
 20
37.1434434722
 10
40.8627124297
 20
37.5595086467
 10
39.3422664323
 20
37.8405852566
 10
37.7848814941
 20
37.9822405559
 10
36.2151185059
 20
37.9822405559
 10
34.6577335677
 20
37.8405852566
 10
33.1372875703
 20
37.5595086467
 10
31.6777588554
 20
37.1434434722
 10
30.3021650628
 20
36.5989513295
 10
29.0322001281
 20
35.934619185
 10
27.8878921572
 20
35.1609239534
 10
26.8872875703
 20
34.2900672706
 10
26.0461664995
 20
33.3357830669
 10
25.3777939264
 20
32.3131209742
 10
24.8927104859
 20
31.2382089845
 10
24.5985662336
 20
30.1279991021
 10
24.5
 20
29.0
 10
24.5985662336
 20
27.8720008979
 10
24.8927104859
 20
26.7617910155
 10
25.3777939264
 20
25.6868790258
 10
26.0461664995
 20
24.6642169331
 10
26.8872875703
 20
23.7099327294
 10
27.8878921572
 20
22.8390760466
 10
29.0322001281
 20
22.065380815
 10
30.3021650628
 20
21.4010486705
 10
31.6777588554
 20
20.8565565278
 10
33.1372875703
 20
20.4404913533
 10
34.6577335677
 20
20.1594147434
 10
36.2151185059
 20
20.0177594441
 10
37.7848814941
 20
20.0177594441
 10
39.3422664323
 20
20.1594147434
 10
40.8627124297
 20
20.4404913533
 10
42.3222411446
 20
20.8565565278
 10
43.6978349372
 20
21.4010486705
 10
44.9677998719
 20
22.065380815
 10
46.1121078428
 20
22.8390760466
 10
47.1127124297
 20
23.7099327294
 10
47.9538335005
 20
24.6642169331
 10
48.6222060736
 20
25.6868790258
 10
49.1072895141
 20
26.7617910155
 10
49.4014337664
 20
27.8720008979
 10
49.5
 20
29.0
  0
LWPOLYLINE
  5
A8
330
1F
100
AcDbEntity
  8
0
  6
Continuous
 62
     7
370
    15
100
AcDbPolyline
 90
       51
 70
   128
 43
0.0
 10
49.5
 20
-13.0
 10
49.4014337664
 20
-11.8720008979
 10
49.1072895141
 20
-10.7617910155
 10
48.6222060736
 20
-9.6868790258
 10
47.9538335005
 20
-8.6642169331
 10
47.1127124297
 20
-7.7099327294
 10
46.1121078428
 20
-6.8390760466
 10
44.9677998719
 20
-6.065380815
 10
43.6978349372
 20
-5.4010486705
 10
42.3222411446
 20
-4.8565565278
 10
40.8627124297
 20
-4.4404913533
 10
39.3422664323
 20
-4.1594147434
 10
37.7848814941
 20
-4.0177594441
 10
36.2151185059
 20
-4.0177594441
 10
34.6577335677
 20
-4.1594147434
 10
33.1372875703
 20
-4.4404913533
 10
31.6777588554
 20
-4.8565565278
 10
30.3021650628
 20
-5.4010486705
 10
29.0322001281
 20
-6.065380815
 10
27.8878921572
 20
-6.8390760466
 10
26.8872875703
 20
-7.7099327294
 10
26.0461664995
 20
-8.6642169331
 10
25.3777939264
 20
-9.6868790258
 10
24.8927104859
 20
-10.7617910155
 10
24.5985662336
 20
-11.8720008979
 10
24.5
 20
-13.0
 10
24.5985662336
 20
-14.1279991021
 10
24.8927104859
 20
-15.2382089845
 10
25.3777939264
 20
-16.3131209742
 10
26.0461664995
 20
-17.3357830669
 10
26.8872875703
 20
-18.2900672706
 10
27.8878921572
 20
-19.1609239534
 10
29.0322001281
 20
-19.934619185
 10
30.3021650628
 20
-20.5989513295
 10
31.6777588554
 20
-21.1434434722
 10
33.1372875703
 20
-21.5595086467
 10
34.6577335677
 20
-21.8405852566
 10
36.2151185059
 20
-21.9822405559
 10
37.7848814941
 20
-21.9822405559
 10
39.3422664323
 20
-21.8405852566
 10
40.8627124297
 20
-21.5595086467
 10
42.3222411446
 20
-21.1434434722
 10
43.6978349372
 20
-20.5989513295
 10
44.9677998719
 20
-19.934619185
 10
46.1121078428
 20
-19.1609239534
 10
47.1127124297
 20
-18.2900672706
 10
47.9538335005
 20
-17.3357830669
 10
48.6222060736
 20
-16.3131209742
 10
49.1072895141
 20
-15.2382089845
 10
49.4014337664
 20
-14.1279991021
 10
49.5
 20
-13.0
  0
LWPOLYLINE
  5
A9
330
1F
100
AcDbEntity
  8
0
  6
Continuous
 62
     7
370
    15
100
AcDbPolyline
 90
       51
 70
   128
 43
0.0
 10
49.5
 20
-34.0
 10
49.4014337664
 20
-32.8720008979
 10
49.1072895141
 20
-31.7617910155
 10
48.6222060736
 20
-30.6868790258
 10
47.9538335005
 20
-29.6642169331
 10
47.1127124297
 20
-28.7099327294
 10
46.1121078428
 20
-27.8390760466
 10
44.9677998719
 20
-27.065380815
 10
43.6978349372
 20
-26.4010486705
 10
42.3222411446
 20
-25.8565565278
 10
40.8627124297
 20
-25.4404913533
 10
39.3422664323
 20
-25.1594147434
 10
37.7848814941
 20
-25.0177594441
 10
36.2151185059
 20
-25.0177594441
 10
34.6577335677
 20
-25.1594147434
 10
33.1372875703
 20
-25.4404913533
 10
31.6777588554
 20
-25.8565565278
 10
30.3021650628
 20
-26.4010486705
 10
29.0322001281
 20
-27.065380815
 10
27.8878921572
 20
-27.8390760466
 10
26.8872875703
 20
-28.7099327294
 10
26.0461664995
 20
-29.6642169331
 10
25.3777939264
 20
-30.6868790258
 10
24.8927104859
 20
-31.7617910155
 10
24.5985662336
 20
-32.8720008979
 10
24.5
 20
-34.0
 10
24.5985662336
 20
-35.1279991021
 10
24.8927104859
 20
-36.2382089845
 10
25.3777939264
 20
-37.3131209742
 10
26.0461664995
 20
-38.3357830669
 10
26.8872875703
 20
-39.2900672706
 10
27.8878921572
 20
-40.1609239534
 10
29.0322001281
 20
-40.934619185
 10
30.3021650628
 20
-41.5989513295
 10
31.6777588554
 20
-42.1434434722
 10
33.1372875703
 20
-42.5595086467
 10
34.6577335677
 20
-42.8405852566
 10
36.2151185059
 20
-42.9822405559
 10
37.7848814941
 20
-42.9822405559
 10
39.3422664323
 20
-42.8405852566
 10
40.8627124297
 20
-42.5595086467
 10
42.3222411446
 20
-42.1434434722
 10
43.6978349372
 20
-41.5989513295
 10
44.9677998719
 20
-40.934619185
 10
46.1121078428
 20
-40.1609239534
 10
47.1127124297
 20
-39.2900672706
 10
47.9538335005
 20
-38.3357830669
 10
48.6222060736
 20
-37.3131209742
 10
49.1072895141
 20
-36.2382089845
 10
49.4014337664
 20
-35.1279991021
 10
49.5
 20
-34.0
  0
LWPOLYLINE
  5
AB
330
1F
100
AcDbEntity
  8
0
  6
Continuous
 62
     7
370
    15
100
AcDbPolyline
 90
       51
 70
   128
 43
0.0
 10
11.5
 20
29.0
 10
11.4014337664
 20
30.1279991021
 10
11.1072895141
 20
31.2382089845
 10
10.6222060736
 20
32.3131209742
 10
9.9538335005
 20
33.3357830669
 10
9.1127124297
 20
34.2900672706
 10
8.1121078428
 20
35.1609239534
 10
6.9677998719
 20
35.934619185
 10
5.6978349372
 20
36.5989513295
 10
4.3222411446
 20
37.1434434722
 10
2.8627124297
 20
37.5595086467
 10
1.3422664323
 20
37.8405852566
 10
-0.2151185059
 20
37.9822405559
 10
-1.7848814941
 20
37.9822405559
 10
-3.3422664323
 20
37.8405852566
 10
-4.8627124297
 20
37.5595086467
 10
-6.3222411446
 20
37.1434434722
 10
-7.6978349372
 20
36.5989513295
 10
-8.9677998719
 20
35.934619185
 10
-10.1121078428
 20
35.1609239534
 10
-11.1127124297
 20
34.2900672706
 10
-11.9538335005
 20
33.3357830669
 10
-12.6222060736
 20
32.3131209742
 10
-13.1072895141
 20
31.2382089845
 10
-13.4014337664
 20
30.1279991021
 10
-13.5
 20
29.0
 10
-13.4014337664
 20
27.8720008979
 10
-13.1072895141
 20
26.7617910155
 10
-12.6222060736
 20
25.6868790258
 10
-11.9538335005
 20
24.6642169331
 10
-11.1127124297
 20
23.7099327294
 10
-10.1121078428
 20
22.8390760466
 10
-8.9677998719
 20
22.065380815
 10
-7.6978349372
 20
21.4010486705
 10
-6.3222411446
 20
20.8565565278
 10
-4.8627124297
 20
20.4404913533
 10
-3.3422664323
 20
20.1594147434
 10
-1.7848814941
 20
20.0177594441
 10
-0.2151185059
 20
20.0177594441
 10
1.3422664323
 20
20.1594147434
 10
2.8627124297
 20
20.4404913533
 10
4.3222411446
 20
20.8565565278
 10
5.6978349372
 20
21.4010486705
 10
6.9677998719
 20
22.065380815
 10
8.1121078428
 20
22.8390760466
 10
9.1127124297
 20
23.7099327294
 10
9.9538335005
 20
24.6642169331
 10
10.6222060736
 20
25.6868790258
 10
11.1072895141
 20
26.7617910155
 10
11.4014337664
 20
27.8720008979
 10
11.5
 20
29.0
  0
LWPOLYLINE
  5
AC
330
1F
100
AcDbEntity
  8
0
  6
Continuous
 62
     7
370
    15
100
AcDbPolyline
 90
       51
 70
   128
 43
0.0
 10
11.5
 20
8.0
 10
11.4014337664
 20
9.1279991021
 10
11.1072895141
 20
10.2382089845
 10
10.6222060736
 20
11.3131209742
 10
9.9538335005
 20
12.3357830669
 10
9.1127124297
 20
13.2900672706
 10
8.1121078428
 20
14.1609239534
 10
6.9677998719
 20
14.934619185
 10
5.6978349372
 20
15.5989513295
 10
4.3222411446
 20
16.1434434722
 10
2.8627124297
 20
16.5595086467
 10
1.3422664323
 20
16.8405852566
 10
-0.2151185059
 20
16.9822405559
 10
-1.7848814941
 20
16.9822405559
 10
-3.3422664323
 20
16.8405852566
 10
-4.8627124297
 20
16.5595086467
 10
-6.3222411446
 20
16.1434434722
 10
-7.6978349372
 20
15.5989513295
 10
-8.9677998719
 20
14.934619185
 10
-10.1121078428
 20
14.1609239534
 10
-11.1127124297
 20
13.2900672706
 10
-11.9538335005
 20
12.3357830669
 10
-12.6222060736
 20
11.3131209742
 10
-13.1072895141
 20
10.2382089845
 10
-13.4014337664
 20
9.1279991021
 10
-13.5
 20
8.0
 10
-13.4014337664
 20
6.8720008979
 10
-13.1072895141
 20
5.7617910155
 10
-12.6222060736
 20
4.6868790258
 10
-11.9538335005
 20
3.6642169331
 10
-11.1127124297
 20
2.7099327294
 10
-10.1121078428
 20
1.8390760466
 10
-8.9677998719
 20
1.065380815
 10
-7.6978349372
 20
0.4010486705
 10
-6.3222411446
 20
-0.1434434722
 10
-4.8627124297
 20
-0.5595086467
 10
-3.3422664323
 20
-0.8405852566
 10
-1.7848814941
 20
-0.9822405559
 10
-0.2151185059
 20
-0.9822405559
 10
1.3422664323
 20
-0.8405852566
 10
2.8627124297
 20
-0.5595086467
 10
4.3222411446
 20
-0.1434434722
 10
5.6978349372
 20
0.4010486705
 10
6.9677998719
 20
1.065380815
 10
8.1121078428
 20
1.8390760466
 10
9.1127124297
 20
2.7099327294
 10
9.9538335005
 20
3.6642169331
 10
10.6222060736
 20
4.6868790258
 10
11.1072895141
 20
5.7617910155
 10
11.4014337664
 20
6.8720008979
 10
11.5
 20
8.0
  0
LINE
  5
CE
330
1F
100
AcDbEntity
  8
0
  6
Continuous
 62
     7
370
    15
100
AcDbLine
 10
-30.5
 20
-75.0
 30
0.0
 11
-30.5
 21
-80.0
 31
0.0
  0
LINE
  5
CF
330
1F
100
AcDbEntity
  8
0
  6
Continuous
 62
     7
370
    15
100
AcDbLine
 10
-46.5
 20
-75.0
 30
0.0
 11
-46.5
 21
-80.0
 31
0.0
  0
LINE
  5
D0
330
1F
100
AcDbEntity
  8
0
  6
Continuous
 62
     7
370
    15
100
AcDbLine
 10
110.0
 20
-8.0
 30
0.0
 11
115.0
 21
-8.0
 31
0.0
  0
LINE
  5
D1
330
1F
100
AcDbEntity
  8
0
  6
Continuous
 62
     7
370
    15
100
AcDbLine
 10
8.0
 20
-75.0
 30
0.0
 11
8.0
 21
-80.0
 31
0.0
  0
LINE
  5
D2
330
1F
100
AcDbEntity
  8
0
  6
Continuous
 62
     7
370
    15
100
AcDbLine
 10
-8.0
 20
-75.0
 30
0.0
 11
-8.0
 21
-80.0
 31
0.0
  0
LINE
  5
D3
330
1F
100
AcDbEntity
  8
0
  6
Continuous
 62
     7
370
    15
100
AcDbLine
 10
-98.0
 20
65.0
 30
0.0
 11
-98.0
 21
57.0
 31
0.0
  0
LINE
  5
D4
330
1F
100
AcDbEntity
  8
0
  6
Continuous
 62
     7
370
    15
100
AcDbLine
 10
-90.0
 20
49.0
 30
0.0
 11
69.0
 21
49.0
 31
0.0
  0
LINE
  5
D5
330
1F
100
AcDbEntity
  8
0
  6
Continuous
 62
     7
370
    15
100
AcDbLine
 10
77.0
 20
57.0
 30
0.0
 11
77.0
 21
65.0
 31
0.0
  0
LINE
  5
D6
330
1F
100
AcDbEntity
  8
0
  6
Continuous
 62
     7
370
    15
100
AcDbLine
 10
69.0
 20
73.0
 30
0.0
 11
-90.0
 21
73.0
 31
0.0
  0
LINE
  5
D7
330
1F
100
AcDbEntity
  8
0
  6
Continuous
 62
     7
370
    15
100
AcDbLine
 10
8.0
 20
-78.0
 30
0.0
 11
104.0
 21
-78.0
 31
0.0
  0
LINE
  5
D8
330
1F
100
AcDbEntity
  8
0
  6
Continuous
 62
     7
370
    15
100
AcDbLine
 10
-113.0
 20
69.0
 30
0.0
 11
-113.0
 21
8.0
 31
0.0
  0
LINE
  5
D9
330
1F
100
AcDbEntity
  8
0
  6
Continuous
 62
     7
370
    15
100
AcDbLine
 10
104.0
 20
78.0
 30
0.0
 11
-104.0
 21
78.0
 31
0.0
  0
LINE
  5
DA
330
1F
100
AcDbEntity
  8
0
  6
Continuous
 62
     7
370
    15
100
AcDbLine
 10
113.0
 20
-69.0
 30
0.0
 11
113.0
 21
-8.0
 31
0.0
  0
LINE
  5
DB
330
1F
100
AcDbEntity
  8
0
  6
Continuous
 62
     7
370
    15
100
AcDbLine
 10
-69.0
 20
-75.0
 30
0.0
 11
-69.0
 21
-80.0
 31
0.0
  0
LINE
  5
DC
330
1F
100
AcDbEntity
  8
0
  6
Continuous
 62
     7
370
    15
100
AcDbLine
 10
-85.0
 20
-75.0
 30
0.0
 11
-85.0
 21
-80.0
 31
0.0
  0
LINE
  5
DD
330
1F
100
AcDbEntity
  8
0
  6
Continuous
 62
     7
370
    15
100
AcDbLine
 10
-110.0
 20
8.0
 30
0.0
 11
-115.0
 21
8.0
 31
0.0
  0
LINE
  5
DE
330
1F
100
AcDbEntity
  8
0
  6
Continuous
 62
     7
370
    15
100
AcDbLine
 10
-110.0
 20
-8.0
 30
0.0
 11
-115.0
 21
-8.0
 31
0.0
  0
LINE
  5
DF
330
1F
100
AcDbEntity
  8
0
  6
Continuous
 62
     7
370
    15
100
AcDbLine
 10
113.0
 20
8.0
 30
0.0
 11
113.0
 21
69.0
 31
0.0
  0
LINE
  5
E0
330
1F
100
AcDbEntity
  8
0
  6
Continuous
 62
     7
370
    15
100
AcDbLine
 10
110.0
 20
8.0
 30
0.0
 11
115.0
 21
8.0
 31
0.0
  0
LINE
  5
E1
330
1F
100
AcDbEntity
  8
0
  6
Continuous
 62
     7
370
    15
100
AcDbLine
 10
-113.0
 20
-8.0
 30
0.0
 11
-113.0
 21
-69.0
 31
0.0
  0
LINE
  5
E2
330
1F
100
AcDbEntity
  8
0
  6
Continuous
 62
     7
370
    15
100
AcDbLine
 10
-104.0
 20
-78.0
 30
0.0
 11
-85.0
 21
-78.0
 31
0.0
  0
LINE
  5
E3
330
1F
100
AcDbEntity
  8
0
  6
Continuous
 62
     7
370
    15
100
AcDbLine
 10
-69.0
 20
-78.0
 30
0.0
 11
-46.5
 21
-78.0
 31
0.0
  0
LINE
  5
E4
330
1F
100
AcDbEntity
  8
0
  6
Continuous
 62
     7
370
    15
100
AcDbLine
 10
-30.5
 20
-78.0
 30
0.0
 11
-8.0
 21
-78.0
 31
0.0
  0
LINE
  5
E5
330
1F
100
AcDbEntity
  8
0
  6
Continuous
 62
     7
370
    15
100
AcDbLine
 10
11.0
 20
-83.0
 30
0.0
 11
104.5
 21
-83.0
 31
0.0
  0
LINE
  5
E6
330
1F
100
AcDbEntity
  8
0
  6
Continuous
 62
     7
370
    15
100
AcDbLine
 10
118.0
 20
-69.5
 30
0.0
 11
118.0
 21
-11.0
 31
0.0
  0
LINE
  5
E7
330
1F
100
AcDbEntity
  8
0
  6
Continuous
 62
     7
370
    15
100
AcDbLine
 10
-118.0
 20
-11.0
 30
0.0
 11
-118.0
 21
-69.5
 31
0.0
  0
LINE
  5
E8
330
1F
100
AcDbEntity
  8
0
  6
Continuous
 62
     7
370
    15
100
AcDbLine
 10
-104.5
 20
-83.0
 30
0.0
 11
-88.0
 21
-83.0
 31
0.0
  0
LINE
  5
E9
330
1F
100
AcDbEntity
  8
0
  6
Continuous
 62
     7
370
    15
100
AcDbLine
 10
-66.0
 20
-83.0
 30
0.0
 11
-49.5
 21
-83.0
 31
0.0
  0
LINE
  5
EA
330
1F
100
AcDbEntity
  8
0
  6
Continuous
 62
     7
370
    15
100
AcDbLine
 10
-27.5
 20
-83.0
 30
0.0
 11
-11.0
 21
-83.0
 31
0.0
  0
LINE
  5
EB
330
1F
100
AcDbEntity
  8
0
  6
Continuous
 62
     7
370
    15
100
AcDbLine
 10
-118.0
 20
69.5
 30
0.0
 11
-118.0
 21
11.0
 31
0.0
  0
LINE
  5
EC
330
1F
100
AcDbEntity
  8
0
  6
Continuous
 62
     7
370
    15
100
AcDbLine
 10
104.5
 20
83.0
 30
0.0
 11
-104.5
 21
83.0
 31
0.0
  0
LINE
  5
ED
330
1F
100
AcDbEntity
  8
0
  6
Continuous
 62
     7
370
    15
100
AcDbLine
 10
118.0
 20
11.0
 30
0.0
 11
118.0
 21
69.5
 31
0.0
  0
ARC
  5
EE
330
1F
100
AcDbEntity
  8
0
  6
Continuous
 62
     7
370
    15
100
AcDbCircle
 10
-38.5
 20
-75.0
 30
0.0
 40
8.000000000000007
100
AcDbArc
 50
0.0
 51
180.0
  0
ARC
  5
EF
330
1F
100
AcDbEntity
  8
0
  6
Continuous
 62
     7
370
    15
100
AcDbCircle
 10
-77.0
 20
-75.0
 30
0.0
 40
8.0
100
AcDbArc
 50
0.0
 51
180.0
  0
ARC
  5
F0
330
1F
100
AcDbEntity
  8
0
  6
Continuous
 62
     7
370
    15
100
AcDbCircle
 10
-104.0
 20
-69.0
 30
0.0
 40
9.0
100
AcDbArc
 50
180.0
 51
270.0
  0
ARC
  5
F1
330
1F
100
AcDbEntity
  8
0
  6
Continuous
 62
     7
370
    15
100
AcDbCircle
 10
-104.0
 20
69.0
 30
0.0
 40
9.0
100
AcDbArc
 50
90.0
 51
180.0
  0
ARC
  5
F2
330
1F
100
AcDbEntity
  8
0
  6
Continuous
 62
     7
370
    15
100
AcDbCircle
 10
104.0
 20
69.0
 30
0.0
 40
9.0
100
AcDbArc
 50
0.0
 51
90.0
  0
ARC
  5
F3
330
1F
100
AcDbEntity
  8
0
  6
Continuous
 62
     7
370
    15
100
AcDbCircle
 10
104.0
 20
-69.0
 30
0.0
 40
9.0
100
AcDbArc
 50
270.0
 51
0.0
  0
ARC
  5
F4
330
1F
100
AcDbEntity
  8
0
  6
Continuous
 62
     7
370
    15
100
AcDbCircle
 10
0.0
 20
-75.0
 30
0.0
 40
8.0
100
AcDbArc
 50
0.0
 51
180.0
  0
ARC
  5
F5
330
1F
100
AcDbEntity
  8
0
  6
Continuous
 62
     7
370
    15
100
AcDbCircle
 10
-90.0
 20
65.0
 30
0.0
 40
8.000000000000028
100
AcDbArc
 50
90.0
 51
180.0
  0
ARC
  5
F6
330
1F
100
AcDbEntity
  8
0
  6
Continuous
 62
     7
370
    15
100
AcDbCircle
 10
-90.0
 20
57.0
 30
0.0
 40
7.999999999999972
100
AcDbArc
 50
180.0
 51
270.0
  0
ARC
  5
F7
330
1F
100
AcDbEntity
  8
0
  6
Continuous
 62
     7
370
    15
100
AcDbCircle
 10
69.0
 20
57.0
 30
0.0
 40
8.000000000000014
100
AcDbArc
 50
270.0
 51
0.0
  0
ARC
  5
F8
330
1F
100
AcDbEntity
  8
0
  6
Continuous
 62
     7
370
    15
100
AcDbCircle
 10
69.0
 20
65.0
 30
0.0
 40
8.000000000000014
100
AcDbArc
 50
0.0
 51
90.0
  0
ARC
  5
F9
330
1F
100
AcDbEntity
  8
0
  6
Continuous
 62
     7
370
    15
100
AcDbCircle
 10
-110.0
 20
0.0
 30
0.0
 40
8.000000000000002
100
AcDbArc
 50
270.0
 51
90.0
  0
ARC
  5
FA
330
1F
100
AcDbEntity
  8
0
  6
Continuous
 62
     7
370
    15
100
AcDbCircle
 10
110.0
 20
0.0
 30
0.0
 40
8.000000000000002
100
AcDbArc
 50
90.0
 51
270.0
  0
ARC
  5
FB
330
1F
100
AcDbEntity
  8
0
  6
Continuous
 62
     7
370
    15
100
AcDbCircle
 10
11.0
 20
-80.0
 30
0.0
 40
3.0
100
AcDbArc
 50
180.0
 51
270.0
  0
ARC
  5
FC
330
1F
100
AcDbEntity
  8
0
  6
Continuous
 62
     7
370
    15
100
AcDbCircle
 10
104.5
 20
-69.5
 30
0.0
 40
13.50000000000001
100
AcDbArc
 50
270.0
 51
0.0
  0
ARC
  5
FD
330
1F
100
AcDbEntity
  8
0
  6
Continuous
 62
     7
370
    15
100
AcDbCircle
 10
115.0
 20
-11.0
 30
0.0
 40
3.000000000000014
100
AcDbArc
 50
0.0
 51
90.0
  0
ARC
  5
FE
330
1F
100
AcDbEntity
  8
0
  6
Continuous
 62
     7
370
    15
100
AcDbCircle
 10
-115.0
 20
-11.0
 30
0.0
 40
3.000000000000057
100
AcDbArc
 50
90.0
 51
180.0
  0
ARC
  5
FF
330
1F
100
AcDbEntity
  8
0
  6
Continuous
 62
     7
370
    15
100
AcDbCircle
 10
-88.0
 20
-80.0
 30
0.0
 40
2.999999999999972
100
AcDbArc
 50
270.0
 51
0.0
  0
ARC
  5
100
330
1F
100
AcDbEntity
  8
0
  6
Continuous
 62
     7
370
    15
100
AcDbCircle
 10
-104.5
 20
-69.5
 30
0.0
 40
13.50000000000003
100
AcDbArc
 50
180.0
 51
270.0
  0
ARC
  5
101
330
1F
100
AcDbEntity
  8
0
  6
Continuous
 62
     7
370
    15
100
AcDbCircle
 10
-49.5
 20
-80.0
 30
0.0
 40
2.999999999999979
100
AcDbArc
 50
270.0
 51
0.0
  0
ARC
  5
102
330
1F
100
AcDbEntity
  8
0
  6
Continuous
 62
     7
370
    15
100
AcDbCircle
 10
-66.0
 20
-80.0
 30
0.0
 40
2.999999999999972
100
AcDbArc
 50
180.0
 51
270.0
  0
ARC
  5
103
330
1F
100
AcDbEntity
  8
0
  6
Continuous
 62
     7
370
    15
100
AcDbCircle
 10
-11.0
 20
-80.0
 30
0.0
 40
2.999999999999986
100
AcDbArc
 50
270.0
 51
0.0
  0
ARC
  5
104
330
1F
100
AcDbEntity
  8
0
  6
Continuous
 62
     7
370
    15
100
AcDbCircle
 10
-27.5
 20
-80.0
 30
0.0
 40
3.0
100
AcDbArc
 50
180.0
 51
270.0
  0
ARC
  5
105
330
1F
100
AcDbEntity
  8
0
  6
Continuous
 62
     7
370
    15
100
AcDbCircle
 10
-115.0
 20
11.0
 30
0.0
 40
3.000000000000014
100
AcDbArc
 50
180.0
 51
270.0
  0
ARC
  5
106
330
1F
100
AcDbEntity
  8
0
  6
Continuous
 62
     7
370
    15
100
AcDbCircle
 10
115.0
 20
11.0
 30
0.0
 40
3.000000000000057
100
AcDbArc
 50
270.0
 51
0.0
  0
ARC
  5
107
330
1F
100
AcDbEntity
  8
0
  6
Continuous
 62
     7
370
    15
100
AcDbCircle
 10
-104.5
 20
69.5
 30
0.0
 40
13.50000000000006
100
AcDbArc
 50
90.0
 51
180.0
  0
ARC
  5
108
330
1F
100
AcDbEntity
  8
0
  6
Continuous
 62
     7
370
    15
100
AcDbCircle
 10
104.5
 20
69.5
 30
0.0
 40
13.50000000000001
100
AcDbArc
 50
0.0
 51
90.0
  0
ENDSEC
  0
SECTION
  2
OBJECTS
  0
DICTIONARY
  5
C
330
0
100
AcDbDictionary
281
     1
  3
ACAD_GROUP
350
D
  3
ACAD_IMAGE_VARS
350
12A
  3
ACAD_LAYOUT
350
1A
  3
ACAD_MLINESTYLE
350
17
  3
ACAD_PLOTSETTINGS
350
19
  3
ACAD_PLOTSTYLENAME
350
E
  3
ACAD_SCALELIST
350
47
  3
APPDATA
350
128
  3
DWGPROPS
350
12B
  0
DICTIONARY
  5
D
102
{ACAD_REACTORS
330
C
102
}
330
C
100
AcDbDictionary
281
     1
  0
RASTERVARIABLES
  5
12A
102
{ACAD_REACTORS
330
C
102
}
330
C
100
AcDbRasterVariables
 90
        0
 70
     1
 71
     1
 72
     1
  0
DICTIONARY
  5
1A
102
{ACAD_REACTORS
330
C
102
}
330
C
100
AcDbDictionary
281
     1
  3
Layout1
350
1E
  3
Layout2
350
26
  3
Model
350
22
  0
DICTIONARY
  5
17
102
{ACAD_REACTORS
330
C
102
}
330
C
100
AcDbDictionary
281
     1
  3
Standard
350
18
  0
DICTIONARY
  5
19
102
{ACAD_REACTORS
330
C
102
}
330
C
100
AcDbDictionary
281
     1
  0
ACDBDICTIONARYWDFLT
  5
E
102
{ACAD_REACTORS
330
C
102
}
330
C
100
AcDbDictionary
281
     1
  3
Normal
350
F
100
AcDbDictionaryWithDefault
340
F
  0
DICTIONARY
  5
47
102
{ACAD_REACTORS
330
C
102
}
330
C
100
AcDbDictionary
281
     1
  3
A0
350
48
  3
A1
350
49
  3
A2
350
4A
  3
A3
350
4B
  3
A4
350
4C
  3
A5
350
4D
  3
A6
350
4E
  3
A7
350
4F
  3
A8
350
50
  3
A9
350
51
  3
B0
350
52
  3
B1
350
53
  3
B2
350
54
  3
B3
350
55
  3
B4
350
56
  3
B5
350
57
  3
B6
350
58
  3
B7
350
59
  3
B8
350
5A
  3
B9
350
5B
  3
C0
350
5C
  3
C1
350
5D
  3
C2
350
5E
  3
C3
350
5F
  3
C4
350
60
  3
C5
350
61
  3
C6
350
62
  3
C7
350
63
  3
C8
350
64
  3
C9
350
65
  3
D0
350
66
  3
D1
350
67
  3
D2
350
68
  0
DICTIONARY
  5
128
102
{ACAD_REACTORS
330
C
102
}
330
C
100
AcDbDictionary
281
     1
  0
XRECORD
  5
12B
102
{ACAD_REACTORS
330
C
102
}
330
C
100
AcDbXrecord
280
     1
  1
DWGPROPS COOKIE
  2

  3

  4

  6

  7

  8
Paul
  9

300
=
301
=
302
=
303
=
304
=
305
=
306
=
307
=
308
=
309
=
 40
0.0
 41
2457535.501241447
 42
2457535.502762373
  1

 90
        0
  0
LAYOUT
  5
1E
102
{ACAD_REACTORS
330
1A
102
}
330
1A
100
AcDbPlotSettings
  1

  2
none_device
  4

  6

 40
0.0
 41
0.0
 42
0.0
 43
0.0
 44
0.0
 45
0.0
 46
0.0
 47
0.0
 48
0.0
 49
0.0
140
0.0
141
0.0
142
1.0
143
1.0
 70
   688
 72
     1
 73
     0
 74
     5
  7

 75
    16
147
1.0
148
0.0
149
0.0
100
AcDbLayout
  1
Layout1
 70
     1
 71
     1
 10
0.0
 20
0.0
 11
420.0
 21
297.0
 12
0.0
 22
0.0
 32
0.0
 14
1.000000000000000E+20
 24
1.000000000000000E+20
 34
1.000000000000000E+20
 15
-1.000000000000000E+20
 25
-1.000000000000000E+20
 35
-1.000000000000000E+20
146
0.0
 13
0.0
 23
0.0
 33
0.0
 16
1.0
 26
0.0
 36
0.0
 17
0.0
 27
1.0
 37
0.0
 76
     0
330
1B
  0
LAYOUT
  5
26
102
{ACAD_REACTORS
330
1A
102
}
330
1A
100
AcDbPlotSettings
  1

  2
none_device
  4

  6

 40
0.0
 41
0.0
 42
0.0
 43
0.0
 44
0.0
 45
0.0
 46
0.0
 47
0.0
 48
0.0
 49
0.0
140
0.0
141
0.0
142
1.0
143
1.0
 70
   688
 72
     1
 73
     0
 74
     5
  7

 75
    16
147
1.0
148
0.0
149
0.0
100
AcDbLayout
  1
Layout2
 70
     1
 71
     2
 10
0.0
 20
0.0
 11
0.0
 21
0.0
 12
0.0
 22
0.0
 32
0.0
 14
0.0
 24
0.0
 34
0.0
 15
0.0
 25
0.0
 35
0.0
146
0.0
 13
0.0
 23
0.0
 33
0.0
 16
1.0
 26
0.0
 36
0.0
 17
0.0
 27
1.0
 37
0.0
 76
     0
330
23
  0
LAYOUT
  5
22
102
{ACAD_REACTORS
330
1A
102
}
330
1A
100
AcDbPlotSettings
  1

  2
none_device
  4
ANSI_A_(11.00_x_8.50_Inches)
  6

 40
6.35
 41
19.05
 42
6.35000508
 43
19.05000254
 44
279.4
 45
215.9
 46
133.34999746
 47
88.89999873
 48
0.0
 49
0.0
140
0.0
141
0.0
142
0.0461440678
143
1.0
 70
  1696
 72
     0
 73
     0
 74
     0
  7

 75
     0
147
0.0179189148
148
-1300.4909072572
149
0.0
100
AcDbLayout
  1
Model
 70
     1
 71
     0
 10
0.0
 20
0.0
 11
420.0
 21
297.0
 12
0.0
 22
0.0
 32
0.0
 14
-118.0
 24
-83.0
 34
0.0
 15
118.0
 25
83.0
 35
0.0
146
0.0
 13
0.0
 23
0.0
 33
0.0
 16
1.0
 26
0.0
 36
0.0
 17
0.0
 27
1.0
 37
0.0
 76
     0
330
1F
331
29
  0
MLINESTYLE
  5
18
102
{ACAD_REACTORS
330
17
102
}
330
17
100
AcDbMlineStyle
  2
Standard
 70
     0
  3

 62
   256
 51
90.0
 52
90.0
 71
     2
 49
0.5
 62
   256
  6
BYLAYER
 49
-0.5
 62
   256
  6
BYLAYER
  0
ACDBPLACEHOLDER
  5
F
102
{ACAD_REACTORS
330
E
102
}
330
E
  0
SCALE
  5
48
102
{ACAD_REACTORS
330
47
102
}
330
47
100
AcDbScale
 70
     0
300
1:1
140
1.0
141
1.0
290
     1
  0
SCALE
  5
49
102
{ACAD_REACTORS
330
47
102
}
330
47
100
AcDbScale
 70
     0
300
1:2
140
1.0
141
2.0
290
     0
  0
SCALE
  5
4A
102
{ACAD_REACTORS
330
47
102
}
330
47
100
AcDbScale
 70
     0
300
1:4
140
1.0
141
4.0
290
     0
  0
SCALE
  5
4B
102
{ACAD_REACTORS
330
47
102
}
330
47
100
AcDbScale
 70
     0
300
1:5
140
1.0
141
5.0
290
     0
  0
SCALE
  5
4C
102
{ACAD_REACTORS
330
47
102
}
330
47
100
AcDbScale
 70
     0
300
1:8
140
1.0
141
8.0
290
     0
  0
SCALE
  5
4D
102
{ACAD_REACTORS
330
47
102
}
330
47
100
AcDbScale
 70
     0
300
1:10
140
1.0
141
10.0
290
     0
  0
SCALE
  5
4E
102
{ACAD_REACTORS
330
47
102
}
330
47
100
AcDbScale
 70
     0
300
1:16
140
1.0
141
16.0
290
     0
  0
SCALE
  5
4F
102
{ACAD_REACTORS
330
47
102
}
330
47
100
AcDbScale
 70
     0
300
1:20
140
1.0
141
20.0
290
     0
  0
SCALE
  5
50
102
{ACAD_REACTORS
330
47
102
}
330
47
100
AcDbScale
 70
     0
300
1:30
140
1.0
141
30.0
290
     0
  0
SCALE
  5
51
102
{ACAD_REACTORS
330
47
102
}
330
47
100
AcDbScale
 70
     0
300
1:40
140
1.0
141
40.0
290
     0
  0
SCALE
  5
52
102
{ACAD_REACTORS
330
47
102
}
330
47
100
AcDbScale
 70
     0
300
1:50
140
1.0
141
50.0
290
     0
  0
SCALE
  5
53
102
{ACAD_REACTORS
330
47
102
}
330
47
100
AcDbScale
 70
     0
300
1:100
140
1.0
141
100.0
290
     0
  0
SCALE
  5
54
102
{ACAD_REACTORS
330
47
102
}
330
47
100
AcDbScale
 70
     0
300
2:1
140
2.0
141
1.0
290
     0
  0
SCALE
  5
55
102
{ACAD_REACTORS
330
47
102
}
330
47
100
AcDbScale
 70
     0
300
4:1
140
4.0
141
1.0
290
     0
  0
SCALE
  5
56
102
{ACAD_REACTORS
330
47
102
}
330
47
100
AcDbScale
 70
     0
300
8:1
140
8.0
141
1.0
290
     0
  0
SCALE
  5
57
102
{ACAD_REACTORS
330
47
102
}
330
47
100
AcDbScale
 70
     0
300
10:1
140
10.0
141
1.0
290
     0
  0
SCALE
  5
58
102
{ACAD_REACTORS
330
47
102
}
330
47
100
AcDbScale
 70
     0
300
100:1
140
100.0
141
1.0
290
     0
  0
SCALE
  5
59
102
{ACAD_REACTORS
330
47
102
}
330
47
100
AcDbScale
 70
     0
300
1/128" = 1'-0"
140
0.0078125
141
12.0
290
     0
  0
SCALE
  5
5A
102
{ACAD_REACTORS
330
47
102
}
330
47
100
AcDbScale
 70
     0
300
1/64" = 1'-0"
140
0.015625
141
12.0
290
     0
  0
SCALE
  5
5B
102
{ACAD_REACTORS
330
47
102
}
330
47
100
AcDbScale
 70
     0
300
1/32" = 1'-0"
140
0.03125
141
12.0
290
     0
  0
SCALE
  5
5C
102
{ACAD_REACTORS
330
47
102
}
330
47
100
AcDbScale
 70
     0
300
1/16" = 1'-0"
140
0.0625
141
12.0
290
     0
  0
SCALE
  5
5D
102
{ACAD_REACTORS
330
47
102
}
330
47
100
AcDbScale
 70
     0
300
3/32" = 1'-0"
140
0.09375
141
12.0
290
     0
  0
SCALE
  5
5E
102
{ACAD_REACTORS
330
47
102
}
330
47
100
AcDbScale
 70
     0
300
1/8" = 1'-0"
140
0.125
141
12.0
290
     0
  0
SCALE
  5
5F
102
{ACAD_REACTORS
330
47
102
}
330
47
100
AcDbScale
 70
     0
300
3/16" = 1'-0"
140
0.1875
141
12.0
290
     0
  0
SCALE
  5
60
102
{ACAD_REACTORS
330
47
102
}
330
47
100
AcDbScale
 70
     0
300
1/4" = 1'-0"
140
0.25
141
12.0
290
     0
  0
SCALE
  5
61
102
{ACAD_REACTORS
330
47
102
}
330
47
100
AcDbScale
 70
     0
300
3/8" = 1'-0"
140
0.375
141
12.0
290
     0
  0
SCALE
  5
62
102
{ACAD_REACTORS
330
47
102
}
330
47
100
AcDbScale
 70
     0
300
1/2" = 1'-0"
140
0.5
141
12.0
290
     0
  0
SCALE
  5
63
102
{ACAD_REACTORS
330
47
102
}
330
47
100
AcDbScale
 70
     0
300
3/4" = 1'-0"
140
0.75
141
12.0
290
     0
  0
SCALE
  5
64
102
{ACAD_REACTORS
330
47
102
}
330
47
100
AcDbScale
 70
     0
300
1" = 1'-0"
140
1.0
141
12.0
290
     0
  0
SCALE
  5
65
102
{ACAD_REACTORS
330
47
102
}
330
47
100
AcDbScale
 70
     0
300
1-1/2" = 1'-0"
140
1.5
141
12.0
290
     0
  0
SCALE
  5
66
102
{ACAD_REACTORS
330
47
102
}
330
47
100
AcDbScale
 70
     0
300
3" = 1'-0"
140
3.0
141
12.0
290
     0
  0
SCALE
  5
67
102
{ACAD_REACTORS
330
47
102
}
330
47
100
AcDbScale
 70
     0
300
6" = 1'-0"
140
6.0
141
12.0
290
     0
  0
SCALE
  5
68
102
{ACAD_REACTORS
330
47
102
}
330
47
100
AcDbScale
 70
     0
300
1'-0" = 1'-0"
140
12.0
141
12.0
290
     0
  0
ENDSEC
  0
EOF
